<svg width="26" height="26" viewBox="0 0 26 26" fill="none" xmlns="http://www.w3.org/2000/svg">
<path d="M13 0.5C10.5277 0.5 8.11099 1.23311 6.05538 2.60663C3.99976 3.98015 2.39761 5.93238 1.45151 8.21646C0.505416 10.5005 0.257874 13.0139 0.74019 15.4386C1.2225 17.8634 2.41301 20.0907 4.16117 21.8388C5.90933 23.587 8.13661 24.7775 10.5614 25.2598C12.9861 25.7421 15.4995 25.4946 17.7835 24.5485C20.0676 23.6024 22.0199 22.0002 23.3934 19.9446C24.7669 17.889 25.5 15.4723 25.5 13C25.5 11.3585 25.1767 9.73303 24.5485 8.21646C23.9203 6.69989 22.9996 5.3219 21.8388 4.16117C20.6781 3.00043 19.3001 2.07969 17.7835 1.45151C16.267 0.823322 14.6415 0.5 13 0.5ZM13 23C10.3478 23 7.8043 21.9464 5.92894 20.0711C4.05357 18.1957 3.00001 15.6522 3.00001 13C2.99724 10.7792 3.74127 8.62193 5.11251 6.875L19.125 20.8875C17.3781 22.2587 15.2208 23.0028 13 23ZM20.8875 19.125L6.87501 5.1125C8.62194 3.74127 10.7792 2.99724 13 3C15.6522 3 18.1957 4.05357 20.0711 5.92893C21.9464 7.8043 23 10.3478 23 13C23.0028 15.2208 22.2587 17.3781 20.8875 19.125Z" fill="#776885"/>
</svg>
