<svg width="23" height="30" viewBox="0 0 23 30" fill="none" xmlns="http://www.w3.org/2000/svg">
<path d="M22.5 6.5625V27.1875C22.5 28.7408 21.2408 30 19.6875 30H2.8125C1.25918 30 0 28.7408 0 27.1875V6.5625C0 5.00918 1.25918 3.75 2.8125 3.75H7.5C7.5 1.68223 9.18223 0 11.25 0C13.3178 0 15 1.68223 15 3.75H19.6875C21.2408 3.75 22.5 5.00918 22.5 6.5625ZM11.25 2.34375C10.4733 2.34375 9.84375 2.97334 9.84375 3.75C9.84375 4.52666 10.4733 5.15625 11.25 5.15625C12.0267 5.15625 12.6562 4.52666 12.6562 3.75C12.6562 2.97334 12.0267 2.34375 11.25 2.34375ZM16.875 9.02344V7.85156C16.875 7.75832 16.838 7.6689 16.772 7.60297C16.7061 7.53704 16.6167 7.5 16.5234 7.5H5.97656C5.88332 7.5 5.7939 7.53704 5.72797 7.60297C5.66204 7.6689 5.625 7.75832 5.625 7.85156V9.02344C5.625 9.11668 5.66204 9.2061 5.72797 9.27203C5.7939 9.33796 5.88332 9.375 5.97656 9.375H16.5234C16.6167 9.375 16.7061 9.33796 16.772 9.27203C16.838 9.2061 16.875 9.11668 16.875 9.02344Z" fill="#776885"/>
</svg>
