<svg width="30" height="30" viewBox="0 0 30 30" fill="none" xmlns="http://www.w3.org/2000/svg">
<path d="M11.6667 16.6667H1.66667C1.22464 16.6667 0.800716 16.8423 0.488155 17.1548C0.175595 17.4674 0 17.8913 0 18.3333V28.3333C0 28.7754 0.175595 29.1993 0.488155 29.5118C0.800716 29.8244 1.22464 30 1.66667 30H11.6667C12.1087 30 12.5326 29.8244 12.8452 29.5118C13.1577 29.1993 13.3333 28.7754 13.3333 28.3333V18.3333C13.3333 17.8913 13.1577 17.4674 12.8452 17.1548C12.5326 16.8423 12.1087 16.6667 11.6667 16.6667ZM10 26.6667H3.33333V20H10V26.6667ZM28.3333 0H18.3333C17.8913 0 17.4674 0.175595 17.1548 0.488155C16.8423 0.800716 16.6667 1.22464 16.6667 1.66667V11.6667C16.6667 12.1087 16.8423 12.5326 17.1548 12.8452C17.4674 13.1577 17.8913 13.3333 18.3333 13.3333H28.3333C28.7754 13.3333 29.1993 13.1577 29.5118 12.8452C29.8244 12.5326 30 12.1087 30 11.6667V1.66667C30 1.22464 29.8244 0.800716 29.5118 0.488155C29.1993 0.175595 28.7754 0 28.3333 0ZM26.6667 10H20V3.33333H26.6667V10ZM28.3333 21.6667H25V18.3333C25 17.8913 24.8244 17.4674 24.5118 17.1548C24.1993 16.8423 23.7754 16.6667 23.3333 16.6667C22.8913 16.6667 22.4674 16.8423 22.1548 17.1548C21.8423 17.4674 21.6667 17.8913 21.6667 18.3333V21.6667H18.3333C17.8913 21.6667 17.4674 21.8423 17.1548 22.1548C16.8423 22.4674 16.6667 22.8913 16.6667 23.3333C16.6667 23.7754 16.8423 24.1993 17.1548 24.5118C17.4674 24.8244 17.8913 25 18.3333 25H21.6667V28.3333C21.6667 28.7754 21.8423 29.1993 22.1548 29.5118C22.4674 29.8244 22.8913 30 23.3333 30C23.7754 30 24.1993 29.8244 24.5118 29.5118C24.8244 29.1993 25 28.7754 25 28.3333V25H28.3333C28.7754 25 29.1993 24.8244 29.5118 24.5118C29.8244 24.1993 30 23.7754 30 23.3333C30 22.8913 29.8244 22.4674 29.5118 22.1548C29.1993 21.8423 28.7754 21.6667 28.3333 21.6667ZM11.6667 0H1.66667C1.22464 0 0.800716 0.175595 0.488155 0.488155C0.175595 0.800716 0 1.22464 0 1.66667V11.6667C0 12.1087 0.175595 12.5326 0.488155 12.8452C0.800716 13.1577 1.22464 13.3333 1.66667 13.3333H11.6667C12.1087 13.3333 12.5326 13.1577 12.8452 12.8452C13.1577 12.5326 13.3333 12.1087 13.3333 11.6667V1.66667C13.3333 1.22464 13.1577 0.800716 12.8452 0.488155C12.5326 0.175595 12.1087 0 11.6667 0ZM10 10H3.33333V3.33333H10V10Z" fill="white"/>
</svg>
