<svg width="30" height="30" viewBox="0 0 30 30" fill="none" xmlns="http://www.w3.org/2000/svg">
<path d="M15 20C14.7079 20.0005 14.4249 19.8988 14.2 19.7125L6.69996 13.4625C6.44469 13.2503 6.28416 12.9454 6.25369 12.6149C6.22321 12.2844 6.32529 11.9552 6.53746 11.7C6.74964 11.4447 7.05453 11.2842 7.38506 11.2537C7.71559 11.2232 8.04469 11.3253 8.29996 11.5375L15 17.1375L21.7 11.7375C21.8278 11.6336 21.9749 11.5561 22.1329 11.5093C22.2908 11.4625 22.4564 11.4474 22.6202 11.4648C22.784 11.4823 22.9427 11.5319 23.0872 11.6108C23.2318 11.6898 23.3593 11.7966 23.4625 11.925C23.5769 12.0535 23.6636 12.2043 23.7171 12.3679C23.7706 12.5315 23.7897 12.7043 23.7733 12.8757C23.7569 13.047 23.7053 13.2131 23.6217 13.3635C23.538 13.514 23.4243 13.6455 23.2875 13.75L15.7875 19.7875C15.5561 19.9444 15.2788 20.0192 15 20Z" fill="white"/>
</svg>
