<svg width="34" height="30" viewBox="0 0 34 30" fill="none" xmlns="http://www.w3.org/2000/svg">
<path d="M16.9957 2.60384C15.0182 0.830613 12.4266 -0.100558 9.77273 0.00862235C7.11889 0.117803 4.61251 1.25871 2.78735 3.18837C0.962197 5.11804 -0.0375279 7.684 0.00107791 10.3398C0.0396837 12.9956 1.11357 15.5314 2.99404 17.4072L14.5939 29.0053C15.2309 29.6422 16.0949 30 16.9957 30C17.8965 30 18.7605 29.6422 19.3975 29.0053L30.9973 17.4072C32.8778 15.5314 33.9517 12.9956 33.9903 10.3398C34.0289 7.684 33.0292 5.11804 31.204 3.18837C29.3789 1.25871 26.8725 0.117803 24.2187 0.00862235C21.5648 -0.100558 18.9732 0.830613 16.9957 2.60384ZM15.0049 5.39635L15.7948 6.18451C16.1133 6.50295 16.5453 6.68184 16.9957 6.68184C17.4461 6.68184 17.8781 6.50295 18.1966 6.18451L18.9865 5.39635C19.6132 4.74741 20.363 4.2298 21.1919 3.87371C22.0209 3.51762 22.9124 3.33019 23.8146 3.32235C24.7167 3.31451 25.6114 3.48642 26.4465 3.82805C27.2815 4.16968 28.0401 4.67419 28.678 5.31214C29.316 5.95008 29.8205 6.7087 30.1621 7.54371C30.5037 8.37872 30.6757 9.27341 30.6678 10.1756C30.66 11.0777 30.4725 11.9693 30.1165 12.7983C29.7604 13.6272 29.2427 14.3769 28.5938 15.0037L16.9957 26.6035L5.39758 15.0037C4.15992 13.7222 3.47507 12.006 3.49055 10.2245C3.50604 8.44299 4.2206 6.73886 5.48034 5.47912C6.74009 4.21937 8.44422 3.50481 10.2257 3.48933C12.0072 3.47385 13.7235 4.15869 15.0049 5.39635Z" fill="#776885"/>
</svg>
