<svg width="30" height="30" viewBox="0 0 30 30" fill="none" xmlns="http://www.w3.org/2000/svg">
<path d="M23.3324 22.1539L29.7559 28.5774C30.0814 28.9028 30.0814 29.4305 29.7559 29.7559C29.4305 30.0814 28.9028 30.0814 28.5774 29.7559L22.1539 23.3324C19.8033 25.4075 16.7153 26.6667 13.3333 26.6667C5.96954 26.6667 0 20.6971 0 13.3333C0 5.96954 5.96954 0 13.3333 0C20.6971 0 26.6667 5.96954 26.6667 13.3333C26.6667 16.7153 25.4075 19.8033 23.3324 22.1539ZM13.3333 25C19.7767 25 25 19.7767 25 13.3333C25 6.89001 19.7767 1.66667 13.3333 1.66667C6.89001 1.66667 1.66667 6.89001 1.66667 13.3333C1.66667 19.7767 6.89001 25 13.3333 25Z" fill="white"/>
</svg>
