<svg width="309" height="309" viewBox="0 0 309 309" fill="none" xmlns="http://www.w3.org/2000/svg">
<rect y="154.5" width="218.496" height="218.496" rx="5" transform="rotate(-45 0 154.5)" fill="#776885"/>
<path d="M155.944 3.87836C155.72 3.0808 154.892 2.61587 154.094 2.8399L141.097 6.49074C140.3 6.71477 139.835 7.54293 140.059 8.34049C140.283 9.13805 141.111 9.60299 141.909 9.37895L153.462 6.13377L156.707 17.6866C156.931 18.4842 157.759 18.9491 158.556 18.7251C159.354 18.5011 159.819 17.6729 159.595 16.8753L155.944 3.87836ZM46.5599 199.616L155.808 5.01831L153.192 3.54971L43.944 198.148L46.5599 199.616Z" fill="white"/>
<path d="M65.7359 110.118L126.093 214.659C126.863 215.992 128.787 215.992 129.557 214.659L189.914 110.118" stroke="white" stroke-width="3"/>
</svg>
