<svg version="1.2" xmlns="http://www.w3.org/2000/svg" viewBox="0 0 48 48" width="48" height="48">
	<title>maven</title>
	<defs>
		<linearGradient id="g1" x2="1" gradientUnits="userSpaceOnUse" gradientTransform="matrix(9.987,-2.794,2.549,9.112,27.594,-0.954)">
			<stop offset="0" stop-color="#f69923"/>
			<stop offset=".312" stop-color="#f79a23"/>
			<stop offset=".838" stop-color="#e97826"/>
		</linearGradient>
		<linearGradient id="g2" x2="1" gradientUnits="userSpaceOnUse" gradientTransform="matrix(20.313,-43.837,14.676,6.801,-14.66,38.956)">
			<stop offset=".323" stop-color="#9e2064"/>
			<stop offset=".63" stop-color="#c92037"/>
			<stop offset=".751" stop-color="#cd2335"/>
			<stop offset="1" stop-color="#e97826"/>
		</linearGradient>
		<linearGradient id="g3" x2="1" gradientUnits="userSpaceOnUse" gradientTransform="matrix(12.105,-26.123,13.7,6.348,.964,39.844)">
			<stop offset="0" stop-color="#282662"/>
			<stop offset=".095" stop-color="#662e8d"/>
			<stop offset=".788" stop-color="#9f2064"/>
			<stop offset=".949" stop-color="#cd2032"/>
		</linearGradient>
		<linearGradient id="g4" x2="1" gradientUnits="userSpaceOnUse" gradientTransform="matrix(20.313,-43.837,8.824,4.089,-13.924,36.302)">
			<stop offset=".323" stop-color="#9e2064"/>
			<stop offset=".63" stop-color="#c92037"/>
			<stop offset=".751" stop-color="#cd2335"/>
			<stop offset="1" stop-color="#e97826"/>
		</linearGradient>
		<linearGradient id="g5" x2="1" gradientUnits="userSpaceOnUse" gradientTransform="matrix(10.675,-23.038,7.607,3.525,-1.519,38.23)">
			<stop offset="0" stop-color="#282662"/>
			<stop offset=".095" stop-color="#662e8d"/>
			<stop offset=".788" stop-color="#9f2064"/>
			<stop offset=".949" stop-color="#cd2032"/>
		</linearGradient>
		<linearGradient id="g6" x2="1" gradientUnits="userSpaceOnUse" gradientTransform="matrix(20.313,-43.837,12.087,5.601,-9.416,38.418)">
			<stop offset=".323" stop-color="#9e2064"/>
			<stop offset=".63" stop-color="#c92037"/>
			<stop offset=".751" stop-color="#cd2335"/>
			<stop offset="1" stop-color="#e97826"/>
		</linearGradient>
		<linearGradient id="g7" x2="1" gradientUnits="userSpaceOnUse" gradientTransform="matrix(20.313,-43.837,18.789,8.706,-10.899,41.032)">
			<stop offset=".323" stop-color="#9e2064"/>
			<stop offset=".63" stop-color="#c92037"/>
			<stop offset=".751" stop-color="#cd2335"/>
			<stop offset="1" stop-color="#e97826"/>
		</linearGradient>
		<linearGradient id="g8" x2="1" gradientUnits="userSpaceOnUse" gradientTransform="matrix(20.314,-43.836,68.004,31.513,-8.229,38.976)">
			<stop offset=".323" stop-color="#9e2064"/>
			<stop offset=".63" stop-color="#c92037"/>
			<stop offset=".751" stop-color="#cd2335"/>
			<stop offset="1" stop-color="#e97826"/>
		</linearGradient>
		<linearGradient id="g9" x2="1" gradientUnits="userSpaceOnUse" gradientTransform="matrix(5.726,-12.47,5.651,2.595,18.176,23.038)">
			<stop offset=".323" stop-color="#9e2064"/>
			<stop offset=".63" stop-color="#c92037"/>
			<stop offset=".751" stop-color="#cd2335"/>
			<stop offset="1" stop-color="#e97826"/>
		</linearGradient>
	</defs>
	<style>
		.s0 { fill: url(#g1) } 
		.s1 { fill: #be202e } 
		.s2 { opacity: .35;fill: #be202e } 
		.s3 { fill: url(#g2) } 
		.s4 { fill: url(#g3) } 
		.s5 { fill: url(#g4) } 
		.s6 { fill: url(#g5) } 
		.s7 { fill: url(#g6) } 
		.s8 { fill: url(#g7) } 
		.s9 { fill: url(#g8) } 
		.s10 { fill: url(#g9) } 
	</style>
	<path class="s0" d="m31.3 0.2c-0.7 0.5-2 1.7-3.5 3.6l1.4 2.5q1.4-2 2.9-3.6 0.1-0.2 0.1-0.2l-0.1 0.2c-0.3 0.3-1.3 1.5-2.7 3.7 1.4-0.1 3.5-0.4 5.3-0.7 0.5-2.9-0.5-4.3-0.5-4.3 0 0-1.4-2.1-2.9-1.2z"/>
	<g>
		<path class="s1" d="m26.7 22q-0.2 0-0.5 0.1 0.1 0 0.1-0.1 0.1 0 0.2 0 0 0 0.1 0 0.1 0 0.1 0z"/>
		<path class="s2" d="m26.7 22q-0.2 0-0.5 0.1 0.1 0 0.1-0.1 0.1 0 0.2 0 0 0 0.1 0 0.1 0 0.1 0z"/>
		<path class="s1" d="m27.2 19.7q0 0 0.1 0 0.1 0 0.3-0.1c0 0-0.4 0.1-0.4 0.1z"/>
		<path class="s2" d="m27.2 19.7q0 0 0.1 0 0.1 0 0.3-0.1c0 0-0.4 0.1-0.4 0.1z"/>
	</g>
	<path class="s3" d="m25.2 13q0.6-1.1 1.2-2.2 0.7-1.2 1.4-2.3v-0.1q0.7-1.1 1.4-2.1l-1.4-2.5q-0.1 0.1-0.3 0.3-0.1 0.2-0.3 0.4-0.1 0.2-0.3 0.4-0.2 0.2-0.3 0.4-0.2 0.2-0.3 0.4-0.4 0.5-0.7 1-0.4 0.5-0.7 1-0.4 0.5-0.7 1.1-0.4 0.5-0.7 1-0.2 0.2-0.3 0.5-0.2 0.2-0.3 0.5-0.2 0.2-0.4 0.5-0.1 0.2-0.3 0.4l1.8 3.6q0.6-1.2 1.2-2.3z"/>
	<path class="s4" d="m17.1 32.9q-0.4 1-0.7 2l-0.1 0.3c-0.2 0.5-0.3 0.9-0.6 1.8 0.5 0.2 0.9 0.9 1.3 1.6q0-0.3-0.1-0.6-0.1-0.2-0.2-0.5-0.1-0.2-0.3-0.5-0.1-0.2-0.3-0.4c2.5 0.1 4.8-0.5 5.9-2.4q0.2-0.3 0.3-0.6c-0.5 0.7-1.2 1-2.4 0.9 1.8-0.8 2.7-1.6 3.5-2.8q0.3-0.5 0.6-1.1c-1.6 1.7-3.4 2.1-5.3 1.8l-1.5 0.1z"/>
	<path class="s5" d="m17.8 29.7q0.3-0.9 0.7-1.8 0.3-1 0.7-1.9 0.4-0.9 0.7-1.8 0.4-0.9 0.8-1.8 0.3-0.7 0.6-1.4 0.3-0.7 0.7-1.4 0.3-0.7 0.6-1.4 0.3-0.7 0.7-1.4 0.3-0.7 0.7-1.5l-1.8-3.6v0.2q-0.5 0.8-1 1.6-0.5 0.8-0.9 1.6-0.5 0.8-0.9 1.7-0.4 0.8-0.8 1.6-0.6 1.2-1.1 2.3-0.2 0.5-0.4 1-0.2 0.5-0.3 1-0.2 0.4-0.4 0.9-0.2 0.5-0.3 1-0.2 0.6-0.4 1.2-0.1 0.3-0.2 0.7-0.1 0.3-0.1 0.7-0.1 0.3-0.2 0.7-0.1 0.3-0.2 0.7l1.8 3.5q0.1-0.3 0.3-0.6 0.1-0.3 0.2-0.6 0.1-0.3 0.2-0.6 0.1-0.3 0.3-0.6z"/>
	<path class="s6" d="m15 28.7q-0.1 0.4-0.1 0.9-0.1 0.4-0.2 0.8 0 0.4-0.1 0.9 0 0.4 0 0.8 0 0.1-0.1 0.1c-0.5-0.9-2-1.7-2-1.7 1.1 1.5 1.9 3.1 2 4.6-0.6 0.1-1.4-0.1-2.3-0.4 1 0.9 1.7 1.1 2 1.2-0.9 0-1.8 0.6-2.7 1.3 1.3-0.5 2.4-0.8 3.2-0.6-1.3 3.5-2.5 7.3-3.7 11.4 0.4-0.1 0.6-0.4 0.7-0.7 0.2-0.7 1.7-5.6 4-11.9l0.1-0.6 0.1-0.1q0.4-1 0.7-2.1l0.2-0.4q0-0.1 0-0.1 0 0 0 0 0 0 0 0 0 0 0 0l-1.8-3.5q0 0.1 0 0.1z"/>
	<path class="s7" d="m24.3 15.6l-0.2 0.3q-0.2 0.5-0.4 1-0.3 0.5-0.5 1.1l-0.3 0.5q-0.2 0.6-0.5 1.1-0.2 0.5-0.4 1-0.3 0.5-0.5 1.1-0.2 0.5-0.4 1-0.4 0.9-0.8 1.8-0.3 0.9-0.7 1.8-0.4 0.9-0.7 1.8-0.4 0.9-0.7 1.8 0 0.1-0.1 0.1-0.4 1.2-0.9 2.5l1.5-0.1q-0.1 0-0.1 0c1.7-0.3 4-1.5 5.4-3.1q1.1-1.1 1.9-2.6 0.6-1.2 1.2-2.6 0.5-1.2 1-2.6-0.2 0.1-0.4 0.2-0.1 0-0.3 0.1-0.2 0-0.3 0.1-0.2 0-0.4 0.1 0 0-0.1 0-0.1 0-0.1 0-0.1 0-0.2 0.1 0 0-0.1 0c1.6-0.7 2.6-1.8 3.3-3.3q-0.2 0.1-0.4 0.3-0.3 0.1-0.5 0.2-0.2 0.1-0.5 0.2-0.2 0.1-0.5 0.1 0 0-0.1 0.1 0 0-0.1 0 0 0-0.1 0 0 0 0 0h-0.1q0.2-0.1 0.4-0.2 0.1 0 0.3-0.1 0.2-0.1 0.4-0.3 0.1-0.1 0.3-0.2 0.1-0.1 0.2-0.2 0.1-0.1 0.2-0.2 0.1-0.1 0.2-0.2 0.1-0.1 0.2-0.2 0.1-0.1 0.2-0.2 0.1-0.1 0.1-0.2 0.1-0.1 0.2-0.2 0-0.1 0.1-0.2 0.1-0.2 0.2-0.3 0.3-0.7 0.5-1.2 0.1-0.2 0.1-0.3 0.1-0.1 0.1-0.3 0.1-0.1 0.1-0.3 0-0.1 0.1-0.2 0.1-0.3 0.1-0.5 0 0-0.1 0 0 0 0 0.1 0 0 0 0-0.1 0-0.1 0c-0.5 0.3-1.3 0.6-2 0.7l1.3-0.2-1.3 0.2h-0.2l-4.5 0.5c0 0 0 0.1 0 0.1z"/>
	<path class="s8" d="m29.4 6.4q-0.6 0.9-1.3 2.1l-0.1 0.1q-0.2 0.3-0.3 0.6-0.2 0.3-0.4 0.6-0.1 0.3-0.3 0.5-0.2 0.3-0.3 0.6-0.2 0.3-0.3 0.6-0.2 0.3-0.3 0.6-0.2 0.3-0.3 0.5-0.2 0.3-0.3 0.6-0.6 1.1-1.2 2.3l4.5-0.5c1.3-0.6 1.9-1.1 2.5-1.9q0.2-0.4 0.5-0.7c0.4-0.8 0.9-1.6 1.3-2.3q0.1-0.3 0.2-0.6 0.2-0.3 0.3-0.5 0.1-0.3 0.2-0.6 0.2-0.3 0.3-0.6 0.2-0.6 0.4-1.2 0.1-0.4 0.2-0.9c-1.8 0.3-3.9 0.6-5.3 0.7z"/>
	<path class="s1" d="m27.2 19.7q0 0 0.1 0z"/>
	<path class="s2" d="m27.2 19.7q0 0 0.1 0z"/>
	<path class="s9" d="m27.2 19.7q0 0 0.1 0z"/>
	<path class="s1" d="m27.2 19.7q0 0 0 0 0 0 0 0z"/>
	<path class="s2" d="m27.2 19.7q0 0 0 0 0 0 0 0z"/>
	<path class="s10" d="m27.2 19.7q0 0 0 0z"/>
</svg>