<svg version="1.1" xmlns="http://www.w3.org/2000/svg" viewBox="0 0 136.07211199999983 136.07211200000017" width="136.07211199999983" height="136.07211200000017">
  <!-- svg-source:excalidraw -->
  
  <defs>
    <style class="style-fonts">
      
    </style>
    
  </defs>
  <g stroke-linecap="round" transform="translate(9.999999999999545 10.000000000000114) rotate(0 58.036056000000144 58.03605600000003)"><path d="M116.07 58.04 C116.07 60.37, 115.93 62.72, 115.65 65.03 C115.37 67.35, 114.94 69.66, 114.39 71.92 C113.83 74.19, 113.13 76.44, 112.3 78.62 C111.47 80.8, 110.51 82.94, 109.42 85.01 C108.34 87.07, 107.12 89.09, 105.8 91 C104.47 92.92, 103.02 94.78, 101.48 96.52 C99.93 98.27, 98.27 99.93, 96.52 101.48 C94.78 103.02, 92.92 104.47, 91 105.8 C89.09 107.12, 87.07 108.34, 85.01 109.42 C82.94 110.51, 80.8 111.47, 78.62 112.3 C76.44 113.13, 74.19 113.83, 71.92 114.39 C69.66 114.94, 67.35 115.37, 65.03 115.65 C62.72 115.93, 60.37 116.07, 58.04 116.07 C55.7 116.07, 53.36 115.93, 51.04 115.65 C48.73 115.37, 46.41 114.94, 44.15 114.39 C41.88 113.83, 39.64 113.13, 37.46 112.3 C35.28 111.47, 33.13 110.51, 31.07 109.42 C29 108.34, 26.99 107.12, 25.07 105.8 C23.15 104.47, 21.3 103.02, 19.55 101.48 C17.81 99.93, 16.14 98.27, 14.6 96.52 C13.05 94.78, 11.6 92.92, 10.27 91 C8.95 89.09, 7.73 87.07, 6.65 85.01 C5.56 82.94, 4.6 80.8, 3.77 78.62 C2.94 76.44, 2.24 74.19, 1.69 71.92 C1.13 69.66, 0.7 67.35, 0.42 65.03 C0.14 62.72, 0 60.37, 0 58.04 C0 55.7, 0.14 53.36, 0.42 51.04 C0.7 48.73, 1.13 46.41, 1.69 44.15 C2.24 41.88, 2.94 39.64, 3.77 37.46 C4.6 35.28, 5.56 33.13, 6.65 31.07 C7.73 29, 8.95 26.99, 10.27 25.07 C11.6 23.15, 13.05 21.3, 14.6 19.55 C16.14 17.81, 17.81 16.14, 19.55 14.6 C21.3 13.05, 23.15 11.6, 25.07 10.27 C26.99 8.95, 29 7.73, 31.07 6.65 C33.13 5.56, 35.28 4.6, 37.46 3.77 C39.64 2.94, 41.88 2.24, 44.15 1.69 C46.41 1.13, 48.73 0.7, 51.04 0.42 C53.36 0.14, 55.7 0, 58.04 0 C60.37 0, 62.72 0.14, 65.03 0.42 C67.35 0.7, 69.66 1.13, 71.92 1.69 C74.19 2.24, 76.44 2.94, 78.62 3.77 C80.8 4.6, 82.94 5.56, 85.01 6.65 C87.07 7.73, 89.09 8.95, 91 10.27 C92.92 11.6, 94.78 13.05, 96.52 14.6 C98.27 16.14, 99.93 17.81, 101.48 19.55 C103.02 21.3, 104.47 23.15, 105.8 25.07 C107.12 26.99, 108.34 29, 109.42 31.07 C110.51 33.13, 111.47 35.28, 112.3 37.46 C113.13 39.64, 113.83 41.88, 114.39 44.15 C114.94 46.41, 115.37 48.73, 115.65 51.04 C115.93 53.36, 116.07 55.7, 116.07 58.04" stroke="none" stroke-width="0" fill="#89bd9e"></path><path d="M116.07 58.04 C116.07 60.37, 115.93 62.72, 115.65 65.03 C115.37 67.35, 114.94 69.66, 114.39 71.92 C113.83 74.19, 113.13 76.44, 112.3 78.62 C111.47 80.8, 110.51 82.94, 109.42 85.01 C108.34 87.07, 107.12 89.09, 105.8 91 C104.47 92.92, 103.02 94.78, 101.48 96.52 C99.93 98.27, 98.27 99.93, 96.52 101.48 C94.78 103.02, 92.92 104.47, 91 105.8 C89.09 107.12, 87.07 108.34, 85.01 109.42 C82.94 110.51, 80.8 111.47, 78.62 112.3 C76.44 113.13, 74.19 113.83, 71.92 114.39 C69.66 114.94, 67.35 115.37, 65.03 115.65 C62.72 115.93, 60.37 116.07, 58.04 116.07 C55.7 116.07, 53.36 115.93, 51.04 115.65 C48.73 115.37, 46.41 114.94, 44.15 114.39 C41.88 113.83, 39.64 113.13, 37.46 112.3 C35.28 111.47, 33.13 110.51, 31.07 109.42 C29 108.34, 26.99 107.12, 25.07 105.8 C23.15 104.47, 21.3 103.02, 19.55 101.48 C17.81 99.93, 16.14 98.27, 14.6 96.52 C13.05 94.78, 11.6 92.92, 10.27 91 C8.95 89.09, 7.73 87.07, 6.65 85.01 C5.56 82.94, 4.6 80.8, 3.77 78.62 C2.94 76.44, 2.24 74.19, 1.69 71.92 C1.13 69.66, 0.7 67.35, 0.42 65.03 C0.14 62.72, 0 60.37, 0 58.04 C0 55.7, 0.14 53.36, 0.42 51.04 C0.7 48.73, 1.13 46.41, 1.69 44.15 C2.24 41.88, 2.94 39.64, 3.77 37.46 C4.6 35.28, 5.56 33.13, 6.65 31.07 C7.73 29, 8.95 26.99, 10.27 25.07 C11.6 23.15, 13.05 21.3, 14.6 19.55 C16.14 17.81, 17.81 16.14, 19.55 14.6 C21.3 13.05, 23.15 11.6, 25.07 10.27 C26.99 8.95, 29 7.73, 31.07 6.65 C33.13 5.56, 35.28 4.6, 37.46 3.77 C39.64 2.94, 41.88 2.24, 44.15 1.69 C46.41 1.13, 48.73 0.7, 51.04 0.42 C53.36 0.14, 55.7 0, 58.04 0 C60.37 0, 62.72 0.14, 65.03 0.42 C67.35 0.7, 69.66 1.13, 71.92 1.69 C74.19 2.24, 76.44 2.94, 78.62 3.77 C80.8 4.6, 82.94 5.56, 85.01 6.65 C87.07 7.73, 89.09 8.95, 91 10.27 C92.92 11.6, 94.78 13.05, 96.52 14.6 C98.27 16.14, 99.93 17.81, 101.48 19.55 C103.02 21.3, 104.47 23.15, 105.8 25.07 C107.12 26.99, 108.34 29, 109.42 31.07 C110.51 33.13, 111.47 35.28, 112.3 37.46 C113.13 39.64, 113.83 41.88, 114.39 44.15 C114.94 46.41, 115.37 48.73, 115.65 51.04 C115.93 53.36, 116.07 55.7, 116.07 58.04" stroke="#89bd9e" stroke-width="1" fill="none"></path></g><g stroke-linecap="round"><g transform="translate(50.33462239968685 71.23323023970931) rotate(0 10.090055320305055 2.4436852728863414)"><path d="M-0.36 -0.55 C1.29 0.1, 6.01 2.98, 9.41 3.94 C12.82 4.91, 18.2 5.06, 20.05 5.24 M0.46 0.36 C2.11 1.1, 5.94 4.02, 9.14 4.68 C12.33 5.35, 17.7 4.21, 19.64 4.35" stroke="#ffffff" stroke-width="2" fill="none"></path></g></g><mask></mask><g stroke-linecap="round" transform="translate(54.83730047505742 40.57477637940178) rotate(0 1.3653920095075591 3.413480023768784)"><path d="M1.16 -0.08 C1.41 -0.13, 2.09 0.14, 2.3 0.58 C2.51 1.02, 2.36 1.86, 2.43 2.56 C2.49 3.26, 2.81 4.12, 2.69 4.78 C2.57 5.44, 1.99 6.2, 1.7 6.52 C1.41 6.83, 1.16 6.91, 0.96 6.68 C0.77 6.45, 0.65 5.79, 0.53 5.15 C0.42 4.5, 0.34 3.51, 0.28 2.83 C0.22 2.15, 0.04 1.58, 0.18 1.08 C0.32 0.58, 0.96 -0.04, 1.12 -0.17 C1.29 -0.3, 1.09 0.22, 1.16 0.29 M0.89 -0.15 C1.19 -0.22, 2.14 -0.02, 2.45 0.46 C2.77 0.93, 2.69 2.01, 2.77 2.71 C2.85 3.42, 3.09 4.07, 2.92 4.68 C2.75 5.28, 2.01 6.07, 1.74 6.34 C1.47 6.62, 1.62 6.56, 1.32 6.31 C1.02 6.06, 0.1 5.38, -0.07 4.86 C-0.23 4.35, 0.21 3.88, 0.34 3.2 C0.47 2.53, 0.58 1.33, 0.71 0.84 C0.83 0.36, 0.92 0.48, 1.08 0.31 C1.23 0.13, 1.57 -0.13, 1.64 -0.2" stroke="none" stroke-width="0" fill="#ffffff"></path><path d="M1.6 0.05 C1.86 -0.05, 1.96 0.11, 2.1 0.6 C2.24 1.09, 2.42 2.25, 2.45 2.99 C2.47 3.73, 2.42 4.41, 2.25 5.04 C2.09 5.68, 1.66 6.58, 1.47 6.82 C1.28 7.06, 1.32 6.79, 1.13 6.49 C0.95 6.19, 0.5 5.63, 0.35 5.03 C0.2 4.42, 0.26 3.6, 0.24 2.86 C0.22 2.12, 0.01 1.1, 0.22 0.6 C0.43 0.11, 1.31 0.01, 1.5 -0.12 C1.69 -0.24, 1.41 -0.23, 1.36 -0.16 M1.22 0.36 C1.54 0.38, 1.82 0.44, 2.12 0.81 C2.41 1.19, 2.96 1.79, 3 2.62 C3.05 3.45, 2.69 5.11, 2.4 5.79 C2.11 6.47, 1.59 6.53, 1.27 6.67 C0.95 6.82, 0.75 6.9, 0.5 6.63 C0.26 6.36, -0.12 5.74, -0.19 5.05 C-0.27 4.36, -0.01 3.16, 0.06 2.51 C0.12 1.85, -0.1 1.5, 0.17 1.12 C0.44 0.74, 1.37 0.45, 1.66 0.24 C1.96 0.03, 2.04 -0.15, 1.93 -0.13" stroke="#ffffff" stroke-width="2" fill="none"></path></g><g stroke-linecap="round" transform="translate(70.53638498738565 43.98825599999998) rotate(0 1.8432792128351139 3.4134799999999927)"><path d="M2.02 0.14 C2.41 0.17, 2.82 0.31, 3.08 0.85 C3.34 1.4, 3.57 2.65, 3.57 3.4 C3.57 4.14, 3.32 4.76, 3.09 5.32 C2.85 5.88, 2.53 6.52, 2.18 6.76 C1.83 7, 1.35 7.05, 0.99 6.75 C0.64 6.45, 0.21 5.74, 0.04 4.97 C-0.14 4.19, -0.21 2.88, -0.04 2.1 C0.12 1.33, 0.71 0.69, 1.05 0.32 C1.38 -0.06, 1.74 -0.16, 1.96 -0.15 C2.18 -0.14, 2.37 0.31, 2.37 0.38 M1.76 0.28 C2.16 0.35, 2.54 0.47, 2.88 0.97 C3.21 1.48, 3.72 2.62, 3.77 3.3 C3.81 3.99, 3.4 4.46, 3.14 5.08 C2.88 5.7, 2.59 6.81, 2.2 7.01 C1.8 7.21, 1.17 6.56, 0.76 6.27 C0.36 5.99, -0.14 5.88, -0.23 5.32 C-0.32 4.77, 0.08 3.76, 0.22 2.96 C0.36 2.15, 0.29 0.94, 0.63 0.5 C0.96 0.07, 2.05 0.4, 2.23 0.36 C2.4 0.32, 1.78 0.21, 1.65 0.28" stroke="none" stroke-width="0" fill="#ffffff"></path><path d="M1.82 -0.17 C2.12 -0.32, 2.4 0.01, 2.72 0.44 C3.04 0.88, 3.63 1.71, 3.73 2.42 C3.83 3.12, 3.49 3.94, 3.32 4.68 C3.15 5.41, 3.07 6.48, 2.71 6.84 C2.35 7.2, 1.59 7.08, 1.18 6.85 C0.78 6.62, 0.44 6.14, 0.27 5.45 C0.1 4.75, 0.11 3.4, 0.15 2.66 C0.18 1.91, 0.21 1.42, 0.46 0.96 C0.72 0.51, 1.5 0.1, 1.7 -0.07 C1.89 -0.25, 1.61 -0.2, 1.63 -0.11 M1.9 -0.15 C2.29 -0.22, 2.44 0.37, 2.65 0.76 C2.86 1.16, 2.92 1.63, 3.15 2.2 C3.38 2.76, 4.11 3.51, 4.04 4.15 C3.97 4.8, 3.13 5.7, 2.72 6.08 C2.32 6.46, 1.96 6.52, 1.6 6.43 C1.23 6.35, 0.83 6.16, 0.55 5.58 C0.27 5.01, -0.15 3.67, -0.09 2.97 C-0.03 2.27, 0.6 1.79, 0.91 1.39 C1.22 0.98, 1.71 0.81, 1.78 0.52 C1.86 0.24, 1.38 -0.32, 1.35 -0.32" stroke="#ffffff" stroke-width="2" fill="none"></path></g></svg>