<svg version="1.1" xmlns="http://www.w3.org/2000/svg" viewBox="0 0 136.07211199999983 136.07211199999983" width="136.07211199999983" height="136.07211199999983">
  <!-- svg-source:excalidraw -->
  
  <defs>
    <style class="style-fonts">
      
    </style>
    
  </defs>
  <g stroke-linecap="round" transform="translate(9.999999999999545 9.999999999999886) rotate(0 58.036056000000144 58.036055999999974)"><path d="M116.07 58.04 C116.07 60.37, 115.93 62.72, 115.65 65.03 C115.37 67.35, 114.94 69.66, 114.39 71.92 C113.83 74.19, 113.13 76.44, 112.3 78.62 C111.47 80.8, 110.51 82.94, 109.42 85.01 C108.34 87.07, 107.12 89.09, 105.8 91 C104.47 92.92, 103.02 94.78, 101.48 96.52 C99.93 98.27, 98.27 99.93, 96.52 101.48 C94.78 103.02, 92.92 104.47, 91 105.8 C89.09 107.12, 87.07 108.34, 85.01 109.42 C82.94 110.51, 80.8 111.47, 78.62 112.3 C76.44 113.13, 74.19 113.83, 71.92 114.39 C69.66 114.94, 67.35 115.37, 65.03 115.65 C62.72 115.93, 60.37 116.07, 58.04 116.07 C55.7 116.07, 53.36 115.93, 51.04 115.65 C48.73 115.37, 46.41 114.94, 44.15 114.39 C41.88 113.83, 39.64 113.13, 37.46 112.3 C35.28 111.47, 33.13 110.51, 31.07 109.42 C29 108.34, 26.99 107.12, 25.07 105.8 C23.15 104.47, 21.3 103.02, 19.55 101.48 C17.81 99.93, 16.14 98.27, 14.6 96.52 C13.05 94.78, 11.6 92.92, 10.27 91 C8.95 89.09, 7.73 87.07, 6.65 85.01 C5.56 82.94, 4.6 80.8, 3.77 78.62 C2.94 76.44, 2.24 74.19, 1.69 71.92 C1.13 69.66, 0.7 67.35, 0.42 65.03 C0.14 62.72, 0 60.37, 0 58.04 C0 55.7, 0.14 53.36, 0.42 51.04 C0.7 48.73, 1.13 46.41, 1.69 44.15 C2.24 41.88, 2.94 39.64, 3.77 37.46 C4.6 35.28, 5.56 33.13, 6.65 31.07 C7.73 29, 8.95 26.99, 10.27 25.07 C11.6 23.15, 13.05 21.3, 14.6 19.55 C16.14 17.81, 17.81 16.14, 19.55 14.6 C21.3 13.05, 23.15 11.6, 25.07 10.27 C26.99 8.95, 29 7.73, 31.07 6.65 C33.13 5.56, 35.28 4.6, 37.46 3.77 C39.64 2.94, 41.88 2.24, 44.15 1.69 C46.41 1.13, 48.73 0.7, 51.04 0.42 C53.36 0.14, 55.7 0, 58.04 0 C60.37 0, 62.72 0.14, 65.03 0.42 C67.35 0.7, 69.66 1.13, 71.92 1.69 C74.19 2.24, 76.44 2.94, 78.62 3.77 C80.8 4.6, 82.94 5.56, 85.01 6.65 C87.07 7.73, 89.09 8.95, 91 10.27 C92.92 11.6, 94.78 13.05, 96.52 14.6 C98.27 16.14, 99.93 17.81, 101.48 19.55 C103.02 21.3, 104.47 23.15, 105.8 25.07 C107.12 26.99, 108.34 29, 109.42 31.07 C110.51 33.13, 111.47 35.28, 112.3 37.46 C113.13 39.64, 113.83 41.88, 114.39 44.15 C114.94 46.41, 115.37 48.73, 115.65 51.04 C115.93 53.36, 116.07 55.7, 116.07 58.04" stroke="none" stroke-width="0" fill="#776885"></path><path d="M116.07 58.04 C116.07 60.37, 115.93 62.72, 115.65 65.03 C115.37 67.35, 114.94 69.66, 114.39 71.92 C113.83 74.19, 113.13 76.44, 112.3 78.62 C111.47 80.8, 110.51 82.94, 109.42 85.01 C108.34 87.07, 107.12 89.09, 105.8 91 C104.47 92.92, 103.02 94.78, 101.48 96.52 C99.93 98.27, 98.27 99.93, 96.52 101.48 C94.78 103.02, 92.92 104.47, 91 105.8 C89.09 107.12, 87.07 108.34, 85.01 109.42 C82.94 110.51, 80.8 111.47, 78.62 112.3 C76.44 113.13, 74.19 113.83, 71.92 114.39 C69.66 114.94, 67.35 115.37, 65.03 115.65 C62.72 115.93, 60.37 116.07, 58.04 116.07 C55.7 116.07, 53.36 115.93, 51.04 115.65 C48.73 115.37, 46.41 114.94, 44.15 114.39 C41.88 113.83, 39.64 113.13, 37.46 112.3 C35.28 111.47, 33.13 110.51, 31.07 109.42 C29 108.34, 26.99 107.12, 25.07 105.8 C23.15 104.47, 21.3 103.02, 19.55 101.48 C17.81 99.93, 16.14 98.27, 14.6 96.52 C13.05 94.78, 11.6 92.92, 10.27 91 C8.95 89.09, 7.73 87.07, 6.65 85.01 C5.56 82.94, 4.6 80.8, 3.77 78.62 C2.94 76.44, 2.24 74.19, 1.69 71.92 C1.13 69.66, 0.7 67.35, 0.42 65.03 C0.14 62.72, 0 60.37, 0 58.04 C0 55.7, 0.14 53.36, 0.42 51.04 C0.7 48.73, 1.13 46.41, 1.69 44.15 C2.24 41.88, 2.94 39.64, 3.77 37.46 C4.6 35.28, 5.56 33.13, 6.65 31.07 C7.73 29, 8.95 26.99, 10.27 25.07 C11.6 23.15, 13.05 21.3, 14.6 19.55 C16.14 17.81, 17.81 16.14, 19.55 14.6 C21.3 13.05, 23.15 11.6, 25.07 10.27 C26.99 8.95, 29 7.73, 31.07 6.65 C33.13 5.56, 35.28 4.6, 37.46 3.77 C39.64 2.94, 41.88 2.24, 44.15 1.69 C46.41 1.13, 48.73 0.7, 51.04 0.42 C53.36 0.14, 55.7 0, 58.04 0 C60.37 0, 62.72 0.14, 65.03 0.42 C67.35 0.7, 69.66 1.13, 71.92 1.69 C74.19 2.24, 76.44 2.94, 78.62 3.77 C80.8 4.6, 82.94 5.56, 85.01 6.65 C87.07 7.73, 89.09 8.95, 91 10.27 C92.92 11.6, 94.78 13.05, 96.52 14.6 C98.27 16.14, 99.93 17.81, 101.48 19.55 C103.02 21.3, 104.47 23.15, 105.8 25.07 C107.12 26.99, 108.34 29, 109.42 31.07 C110.51 33.13, 111.47 35.28, 112.3 37.46 C113.13 39.64, 113.83 41.88, 114.39 44.15 C114.94 46.41, 115.37 48.73, 115.65 51.04 C115.93 53.36, 116.07 55.7, 116.07 58.04" stroke="#776885" stroke-width="1" fill="none"></path></g><g stroke-linecap="round"><g transform="translate(50.334622399687305 71.23323023970909) rotate(0 10.090055320305282 2.4436852728863414)"><path d="M-0.55 0.17 C1.02 0.87, 5.62 3.41, 9.08 4.23 C12.54 5.04, 18.42 4.86, 20.2 5.05 M0.17 -0.21 C1.69 0.33, 5.34 2.74, 8.63 3.45 C11.91 4.17, 18.02 3.9, 19.86 4.07" stroke="#ffffff" stroke-width="2" fill="none"></path></g></g><mask></mask><g stroke-linecap="round" transform="translate(54.83730047505696 40.574776379401555) rotate(0 1.3653920095073317 3.413480023768784)"><path d="M1.52 0.2 C1.79 0.14, 2.24 0.43, 2.45 0.89 C2.66 1.35, 2.75 2.29, 2.81 2.95 C2.87 3.61, 3 4.25, 2.81 4.83 C2.63 5.41, 2.05 6.17, 1.71 6.43 C1.38 6.69, 1.1 6.64, 0.82 6.38 C0.54 6.13, 0.17 5.43, 0.04 4.91 C-0.09 4.39, 0.03 3.99, 0.05 3.27 C0.07 2.55, -0.06 1.11, 0.15 0.59 C0.35 0.08, 1.11 0.25, 1.29 0.19 C1.46 0.13, 1.18 0.16, 1.22 0.23 M1.76 0.19 C2.04 0.09, 1.8 0.37, 1.92 0.82 C2.04 1.26, 2.42 2.19, 2.49 2.84 C2.56 3.49, 2.48 4.19, 2.34 4.73 C2.2 5.26, 1.94 5.75, 1.66 6.05 C1.39 6.36, 0.84 6.64, 0.67 6.56 C0.49 6.48, 0.67 6.24, 0.62 5.58 C0.58 4.91, 0.42 3.35, 0.37 2.57 C0.33 1.79, 0.21 1.35, 0.37 0.91 C0.52 0.47, 1.11 0.09, 1.3 -0.08 C1.5 -0.24, 1.59 -0.13, 1.55 -0.1" stroke="none" stroke-width="0" fill="#ffffff"></path><path d="M1.28 -0.26 C1.59 -0.24, 2.33 0.31, 2.61 0.81 C2.89 1.31, 2.94 1.97, 2.94 2.75 C2.94 3.53, 2.75 4.84, 2.6 5.49 C2.46 6.15, 2.35 6.55, 2.09 6.67 C1.84 6.8, 1.38 6.47, 1.07 6.25 C0.77 6.02, 0.4 5.88, 0.26 5.32 C0.12 4.75, 0.16 3.66, 0.23 2.87 C0.29 2.09, 0.46 1.11, 0.63 0.62 C0.79 0.13, 1.04 -0.03, 1.23 -0.07 C1.41 -0.11, 1.7 0.29, 1.75 0.39 M0.8 -0.23 C1.06 -0.38, 2.19 -0.37, 2.57 0.13 C2.94 0.63, 3.07 1.97, 3.04 2.78 C3.02 3.59, 2.67 4.32, 2.41 4.98 C2.15 5.64, 1.65 6.42, 1.48 6.74 C1.31 7.06, 1.53 7.1, 1.41 6.91 C1.29 6.72, 1 6.29, 0.75 5.59 C0.5 4.89, 0 3.51, -0.08 2.72 C-0.15 1.93, 0.15 1.27, 0.3 0.85 C0.45 0.43, 0.64 0.39, 0.81 0.22 C0.98 0.05, 1.19 -0.15, 1.34 -0.18" stroke="#ffffff" stroke-width="2" fill="none"></path></g><g stroke-linecap="round" transform="translate(70.53638498738565 43.98825599999975) rotate(0 1.8432792128351139 3.4134799999999927)"><path d="M1.65 -0.19 C2.04 -0.2, 2.89 0.5, 3.24 0.93 C3.59 1.37, 3.74 1.77, 3.76 2.4 C3.79 3.03, 3.66 3.99, 3.4 4.73 C3.15 5.47, 2.64 6.54, 2.24 6.86 C1.85 7.17, 1.39 6.85, 1.05 6.62 C0.7 6.4, 0.33 6.17, 0.17 5.51 C0.02 4.86, 0.07 3.44, 0.11 2.69 C0.15 1.94, 0.13 1.47, 0.41 1.03 C0.68 0.58, 1.49 0.13, 1.75 0 C2.02 -0.13, 1.96 0.18, 1.99 0.24 M2.17 -0.29 C2.62 -0.37, 2.88 0.07, 3.16 0.73 C3.45 1.38, 3.81 2.85, 3.85 3.64 C3.89 4.44, 3.74 4.96, 3.39 5.51 C3.04 6.06, 2.13 6.72, 1.77 6.95 C1.42 7.18, 1.53 7.3, 1.28 6.88 C1.04 6.47, 0.41 5.24, 0.29 4.47 C0.18 3.7, 0.43 2.92, 0.57 2.27 C0.7 1.61, 0.92 0.93, 1.09 0.55 C1.27 0.17, 1.51 0.08, 1.63 -0.01 C1.75 -0.1, 1.76 -0.16, 1.81 -0.01" stroke="none" stroke-width="0" fill="#ffffff"></path><path d="M2.26 -0.2 C2.68 -0.2, 3.23 0.19, 3.45 0.78 C3.67 1.36, 3.6 2.55, 3.61 3.34 C3.61 4.13, 3.64 4.92, 3.46 5.52 C3.29 6.12, 2.92 6.75, 2.55 6.94 C2.19 7.12, 1.62 6.94, 1.27 6.65 C0.91 6.35, 0.67 5.87, 0.44 5.16 C0.2 4.46, -0.16 3.21, -0.13 2.44 C-0.1 1.66, 0.3 0.97, 0.6 0.53 C0.91 0.1, 1.53 -0.09, 1.71 -0.16 C1.89 -0.23, 1.6 0.08, 1.69 0.12 M1.36 0.27 C1.78 0.15, 2.68 0.62, 3.02 0.92 C3.36 1.23, 3.27 1.4, 3.39 2.11 C3.51 2.82, 3.84 4.5, 3.76 5.18 C3.67 5.85, 3.25 5.94, 2.9 6.17 C2.54 6.4, 2 6.7, 1.62 6.55 C1.25 6.4, 0.94 5.85, 0.64 5.27 C0.34 4.69, -0.08 3.79, -0.19 3.05 C-0.29 2.31, -0.28 1.25, -0.01 0.82 C0.26 0.38, 1.14 0.48, 1.45 0.43 C1.76 0.37, 1.9 0.49, 1.85 0.47" stroke="#ffffff" stroke-width="2" fill="none"></path></g></svg>