<svg version="1.1" xmlns="http://www.w3.org/2000/svg" viewBox="0 0 136.07211199999983 136.07211199999983" width="136.07211199999983" height="136.07211199999983">
  <!-- svg-source:excalidraw -->
  
  <defs>
    <style class="style-fonts">
      
    </style>
    
  </defs>
  <g stroke-linecap="round" transform="translate(10 10) rotate(0 58.03605599999992 58.03605599999992)"><path d="M116.07 58.04 C116.07 60.37, 115.93 62.72, 115.65 65.03 C115.37 67.35, 114.94 69.66, 114.39 71.92 C113.83 74.19, 113.13 76.44, 112.3 78.62 C111.47 80.8, 110.51 82.94, 109.42 85.01 C108.34 87.07, 107.12 89.09, 105.8 91 C104.47 92.92, 103.02 94.78, 101.48 96.52 C99.93 98.27, 98.27 99.93, 96.52 101.48 C94.78 103.02, 92.92 104.47, 91 105.8 C89.09 107.12, 87.07 108.34, 85.01 109.42 C82.94 110.51, 80.8 111.47, 78.62 112.3 C76.44 113.13, 74.19 113.83, 71.92 114.39 C69.66 114.94, 67.35 115.37, 65.03 115.65 C62.72 115.93, 60.37 116.07, 58.04 116.07 C55.7 116.07, 53.36 115.93, 51.04 115.65 C48.73 115.37, 46.41 114.94, 44.15 114.39 C41.88 113.83, 39.64 113.13, 37.46 112.3 C35.28 111.47, 33.13 110.51, 31.07 109.42 C29 108.34, 26.99 107.12, 25.07 105.8 C23.15 104.47, 21.3 103.02, 19.55 101.48 C17.81 99.93, 16.14 98.27, 14.6 96.52 C13.05 94.78, 11.6 92.92, 10.27 91 C8.95 89.09, 7.73 87.07, 6.65 85.01 C5.56 82.94, 4.6 80.8, 3.77 78.62 C2.94 76.44, 2.24 74.19, 1.69 71.92 C1.13 69.66, 0.7 67.35, 0.42 65.03 C0.14 62.72, 0 60.37, 0 58.04 C0 55.7, 0.14 53.36, 0.42 51.04 C0.7 48.73, 1.13 46.41, 1.69 44.15 C2.24 41.88, 2.94 39.64, 3.77 37.46 C4.6 35.28, 5.56 33.13, 6.65 31.07 C7.73 29, 8.95 26.99, 10.27 25.07 C11.6 23.15, 13.05 21.3, 14.6 19.55 C16.14 17.81, 17.81 16.14, 19.55 14.6 C21.3 13.05, 23.15 11.6, 25.07 10.27 C26.99 8.95, 29 7.73, 31.07 6.65 C33.13 5.56, 35.28 4.6, 37.46 3.77 C39.64 2.94, 41.88 2.24, 44.15 1.69 C46.41 1.13, 48.73 0.7, 51.04 0.42 C53.36 0.14, 55.7 0, 58.04 0 C60.37 0, 62.72 0.14, 65.03 0.42 C67.35 0.7, 69.66 1.13, 71.92 1.69 C74.19 2.24, 76.44 2.94, 78.62 3.77 C80.8 4.6, 82.94 5.56, 85.01 6.65 C87.07 7.73, 89.09 8.95, 91 10.27 C92.92 11.6, 94.78 13.05, 96.52 14.6 C98.27 16.14, 99.93 17.81, 101.48 19.55 C103.02 21.3, 104.47 23.15, 105.8 25.07 C107.12 26.99, 108.34 29, 109.42 31.07 C110.51 33.13, 111.47 35.28, 112.3 37.46 C113.13 39.64, 113.83 41.88, 114.39 44.15 C114.94 46.41, 115.37 48.73, 115.65 51.04 C115.93 53.36, 116.07 55.7, 116.07 58.04" stroke="none" stroke-width="0" fill="#db995a"></path><path d="M116.07 58.04 C116.07 60.37, 115.93 62.72, 115.65 65.03 C115.37 67.35, 114.94 69.66, 114.39 71.92 C113.83 74.19, 113.13 76.44, 112.3 78.62 C111.47 80.8, 110.51 82.94, 109.42 85.01 C108.34 87.07, 107.12 89.09, 105.8 91 C104.47 92.92, 103.02 94.78, 101.48 96.52 C99.93 98.27, 98.27 99.93, 96.52 101.48 C94.78 103.02, 92.92 104.47, 91 105.8 C89.09 107.12, 87.07 108.34, 85.01 109.42 C82.94 110.51, 80.8 111.47, 78.62 112.3 C76.44 113.13, 74.19 113.83, 71.92 114.39 C69.66 114.94, 67.35 115.37, 65.03 115.65 C62.72 115.93, 60.37 116.07, 58.04 116.07 C55.7 116.07, 53.36 115.93, 51.04 115.65 C48.73 115.37, 46.41 114.94, 44.15 114.39 C41.88 113.83, 39.64 113.13, 37.46 112.3 C35.28 111.47, 33.13 110.51, 31.07 109.42 C29 108.34, 26.99 107.12, 25.07 105.8 C23.15 104.47, 21.3 103.02, 19.55 101.48 C17.81 99.93, 16.14 98.27, 14.6 96.52 C13.05 94.78, 11.6 92.92, 10.27 91 C8.95 89.09, 7.73 87.07, 6.65 85.01 C5.56 82.94, 4.6 80.8, 3.77 78.62 C2.94 76.44, 2.24 74.19, 1.69 71.92 C1.13 69.66, 0.7 67.35, 0.42 65.03 C0.14 62.72, 0 60.37, 0 58.04 C0 55.7, 0.14 53.36, 0.42 51.04 C0.7 48.73, 1.13 46.41, 1.69 44.15 C2.24 41.88, 2.94 39.64, 3.77 37.46 C4.6 35.28, 5.56 33.13, 6.65 31.07 C7.73 29, 8.95 26.99, 10.27 25.07 C11.6 23.15, 13.05 21.3, 14.6 19.55 C16.14 17.81, 17.81 16.14, 19.55 14.6 C21.3 13.05, 23.15 11.6, 25.07 10.27 C26.99 8.95, 29 7.73, 31.07 6.65 C33.13 5.56, 35.28 4.6, 37.46 3.77 C39.64 2.94, 41.88 2.24, 44.15 1.69 C46.41 1.13, 48.73 0.7, 51.04 0.42 C53.36 0.14, 55.7 0, 58.04 0 C60.37 0, 62.72 0.14, 65.03 0.42 C67.35 0.7, 69.66 1.13, 71.92 1.69 C74.19 2.24, 76.44 2.94, 78.62 3.77 C80.8 4.6, 82.94 5.56, 85.01 6.65 C87.07 7.73, 89.09 8.95, 91 10.27 C92.92 11.6, 94.78 13.05, 96.52 14.6 C98.27 16.14, 99.93 17.81, 101.48 19.55 C103.02 21.3, 104.47 23.15, 105.8 25.07 C107.12 26.99, 108.34 29, 109.42 31.07 C110.51 33.13, 111.47 35.28, 112.3 37.46 C113.13 39.64, 113.83 41.88, 114.39 44.15 C114.94 46.41, 115.37 48.73, 115.65 51.04 C115.93 53.36, 116.07 55.7, 116.07 58.04" stroke="#db995a" stroke-width="1" fill="none"></path></g><g stroke-linecap="round"><g transform="translate(50.334622399687305 71.23323023970943) rotate(0 10.090055320304828 2.4436852728863414)"><path d="M0.12 -0.31 C1.63 0.34, 5.95 3.54, 9.22 4.39 C12.49 5.25, 17.88 4.74, 19.75 4.82 M-0.49 0.73 C0.96 1.47, 5.29 2.93, 8.85 3.71 C12.4 4.48, 18.88 5.1, 20.84 5.39" stroke="#ffffff" stroke-width="2" fill="none"></path></g></g><mask></mask><g stroke-linecap="round" transform="translate(54.83730047505787 40.57477637940178) rotate(0 1.3653920095073317 3.413480023768784)"><path d="M1.33 0.31 C1.53 0.09, 1.61 -0.1, 1.88 0.26 C2.15 0.61, 2.8 1.68, 2.94 2.45 C3.08 3.21, 2.86 4.14, 2.72 4.84 C2.58 5.55, 2.34 6.36, 2.08 6.68 C1.83 7, 1.47 6.99, 1.2 6.76 C0.94 6.54, 0.74 5.91, 0.49 5.33 C0.25 4.75, -0.23 3.95, -0.25 3.28 C-0.28 2.61, 0.09 1.87, 0.34 1.34 C0.59 0.8, 1.11 0.32, 1.23 0.07 C1.34 -0.19, 1.01 -0.21, 1.03 -0.18 M1.04 0.3 C1.36 0.28, 1.88 0.28, 2.22 0.67 C2.55 1.06, 2.97 1.97, 3.07 2.64 C3.17 3.31, 2.93 4, 2.8 4.71 C2.68 5.42, 2.55 6.63, 2.31 6.9 C2.06 7.16, 1.71 6.62, 1.34 6.3 C0.96 5.97, 0.28 5.51, 0.08 4.95 C-0.12 4.39, 0.14 3.66, 0.14 2.95 C0.15 2.24, -0.15 1.12, 0.1 0.69 C0.35 0.26, 1.41 0.4, 1.64 0.37 C1.87 0.34, 1.62 0.49, 1.48 0.53" stroke="none" stroke-width="0" fill="#ffffff"></path><path d="M1.72 0.05 C2.09 0.14, 2.59 0.67, 2.73 1.25 C2.88 1.84, 2.64 2.84, 2.58 3.55 C2.53 4.27, 2.54 5, 2.4 5.55 C2.26 6.11, 2.05 6.72, 1.76 6.88 C1.47 7.05, 0.89 6.92, 0.65 6.52 C0.42 6.12, 0.47 5.19, 0.32 4.47 C0.18 3.75, -0.28 2.89, -0.22 2.2 C-0.16 1.51, 0.41 0.7, 0.68 0.34 C0.94 -0.02, 1.18 0.05, 1.39 0.03 C1.6 0, 1.87 0.14, 1.94 0.18 M1.06 0.4 C1.25 0.46, 1.45 0.54, 1.76 1 C2.08 1.46, 2.9 2.47, 2.97 3.17 C3.04 3.87, 2.36 4.63, 2.18 5.21 C2.01 5.79, 2.13 6.38, 1.9 6.65 C1.67 6.92, 1.07 7.15, 0.8 6.83 C0.53 6.51, 0.34 5.37, 0.28 4.75 C0.22 4.14, 0.38 3.83, 0.44 3.14 C0.51 2.46, 0.45 1.11, 0.68 0.65 C0.9 0.2, 1.74 0.46, 1.78 0.41 C1.83 0.36, 1.06 0.37, 0.95 0.38" stroke="#ffffff" stroke-width="2" fill="none"></path></g><g stroke-linecap="round" transform="translate(70.53638498738565 43.98825600000009) rotate(0 1.8432792128351139 3.413479999999936)"><path d="M2.31 -0.17 C2.61 -0.12, 2.69 0.76, 2.94 1.33 C3.19 1.9, 3.72 2.58, 3.82 3.27 C3.91 3.96, 3.74 4.89, 3.53 5.49 C3.32 6.08, 2.97 6.63, 2.56 6.83 C2.14 7.03, 1.47 7.05, 1.03 6.67 C0.59 6.29, 0.11 5.24, -0.06 4.54 C-0.23 3.84, -0.16 3.12, 0.01 2.46 C0.19 1.81, 0.64 1.05, 0.99 0.61 C1.34 0.17, 1.96 -0.12, 2.1 -0.18 C2.24 -0.24, 1.84 0.18, 1.82 0.25 M2.01 0.04 C2.45 0.06, 2.65 0.57, 2.93 1.03 C3.2 1.49, 3.59 2.09, 3.65 2.81 C3.7 3.52, 3.38 4.63, 3.27 5.31 C3.15 5.99, 3.33 6.69, 2.95 6.89 C2.56 7.1, 1.44 6.79, 0.95 6.55 C0.45 6.31, 0.14 6.09, -0.03 5.46 C-0.19 4.82, -0.11 3.42, -0.06 2.73 C0 2.04, -0.04 1.74, 0.32 1.32 C0.68 0.9, 1.77 0.49, 2.08 0.2 C2.39 -0.09, 2.19 -0.38, 2.17 -0.42" stroke="none" stroke-width="0" fill="#ffffff"></path><path d="M1.61 0.36 C1.99 0.18, 2.53 0.05, 2.9 0.39 C3.26 0.72, 3.68 1.62, 3.78 2.36 C3.88 3.11, 3.68 4.19, 3.52 4.86 C3.36 5.54, 3.14 6.05, 2.81 6.4 C2.49 6.75, 2.01 7.18, 1.58 6.98 C1.15 6.78, 0.51 5.81, 0.24 5.19 C-0.04 4.57, -0.1 3.99, -0.08 3.27 C-0.06 2.56, 0.06 1.38, 0.35 0.89 C0.63 0.4, 1.39 0.42, 1.63 0.33 C1.86 0.24, 1.77 0.34, 1.75 0.34 M2.29 -0.48 C2.77 -0.41, 2.97 0.62, 3.25 1.12 C3.54 1.63, 3.96 1.87, 4 2.56 C4.04 3.25, 3.74 4.62, 3.48 5.28 C3.23 5.95, 2.8 6.33, 2.45 6.57 C2.09 6.8, 1.81 6.87, 1.38 6.69 C0.95 6.5, 0.04 6.09, -0.13 5.45 C-0.29 4.82, 0.26 3.62, 0.38 2.9 C0.5 2.19, 0.25 1.7, 0.57 1.15 C0.89 0.59, 2.04 -0.21, 2.31 -0.42 C2.58 -0.64, 2.26 -0.36, 2.2 -0.16" stroke="#ffffff" stroke-width="2" fill="none"></path></g></svg>