<svg version="1.1" xmlns="http://www.w3.org/2000/svg" viewBox="0 0 136.07211199999983 136.0721120000003" width="136.07211199999983" height="136.0721120000003">
  <!-- svg-source:excalidraw -->
  
  <defs>
    <style class="style-fonts">
      
    </style>
    
  </defs>
  <g stroke-linecap="round" transform="translate(10 10.000000000000227) rotate(0 58.03605599999992 58.03605600000003)"><path d="M116.07 58.04 C116.07 60.37, 115.93 62.72, 115.65 65.03 C115.37 67.35, 114.94 69.66, 114.39 71.92 C113.83 74.19, 113.13 76.44, 112.3 78.62 C111.47 80.8, 110.51 82.94, 109.42 85.01 C108.34 87.07, 107.12 89.09, 105.8 91 C104.47 92.92, 103.02 94.78, 101.48 96.52 C99.93 98.27, 98.27 99.93, 96.52 101.48 C94.78 103.02, 92.92 104.47, 91 105.8 C89.09 107.12, 87.07 108.34, 85.01 109.42 C82.94 110.51, 80.8 111.47, 78.62 112.3 C76.44 113.13, 74.19 113.83, 71.92 114.39 C69.66 114.94, 67.35 115.37, 65.03 115.65 C62.72 115.93, 60.37 116.07, 58.04 116.07 C55.7 116.07, 53.36 115.93, 51.04 115.65 C48.73 115.37, 46.41 114.94, 44.15 114.39 C41.88 113.83, 39.64 113.13, 37.46 112.3 C35.28 111.47, 33.13 110.51, 31.07 109.42 C29 108.34, 26.99 107.12, 25.07 105.8 C23.15 104.47, 21.3 103.02, 19.55 101.48 C17.81 99.93, 16.14 98.27, 14.6 96.52 C13.05 94.78, 11.6 92.92, 10.27 91 C8.95 89.09, 7.73 87.07, 6.65 85.01 C5.56 82.94, 4.6 80.8, 3.77 78.62 C2.94 76.44, 2.24 74.19, 1.69 71.92 C1.13 69.66, 0.7 67.35, 0.42 65.03 C0.14 62.72, 0 60.37, 0 58.04 C0 55.7, 0.14 53.36, 0.42 51.04 C0.7 48.73, 1.13 46.41, 1.69 44.15 C2.24 41.88, 2.94 39.64, 3.77 37.46 C4.6 35.28, 5.56 33.13, 6.65 31.07 C7.73 29, 8.95 26.99, 10.27 25.07 C11.6 23.15, 13.05 21.3, 14.6 19.55 C16.14 17.81, 17.81 16.14, 19.55 14.6 C21.3 13.05, 23.15 11.6, 25.07 10.27 C26.99 8.95, 29 7.73, 31.07 6.65 C33.13 5.56, 35.28 4.6, 37.46 3.77 C39.64 2.94, 41.88 2.24, 44.15 1.69 C46.41 1.13, 48.73 0.7, 51.04 0.42 C53.36 0.14, 55.7 0, 58.04 0 C60.37 0, 62.72 0.14, 65.03 0.42 C67.35 0.7, 69.66 1.13, 71.92 1.69 C74.19 2.24, 76.44 2.94, 78.62 3.77 C80.8 4.6, 82.94 5.56, 85.01 6.65 C87.07 7.73, 89.09 8.95, 91 10.27 C92.92 11.6, 94.78 13.05, 96.52 14.6 C98.27 16.14, 99.93 17.81, 101.48 19.55 C103.02 21.3, 104.47 23.15, 105.8 25.07 C107.12 26.99, 108.34 29, 109.42 31.07 C110.51 33.13, 111.47 35.28, 112.3 37.46 C113.13 39.64, 113.83 41.88, 114.39 44.15 C114.94 46.41, 115.37 48.73, 115.65 51.04 C115.93 53.36, 116.07 55.7, 116.07 58.04" stroke="none" stroke-width="0" fill="#db995a"></path><path d="M116.07 58.04 C116.07 60.37, 115.93 62.72, 115.65 65.03 C115.37 67.35, 114.94 69.66, 114.39 71.92 C113.83 74.19, 113.13 76.44, 112.3 78.62 C111.47 80.8, 110.51 82.94, 109.42 85.01 C108.34 87.07, 107.12 89.09, 105.8 91 C104.47 92.92, 103.02 94.78, 101.48 96.52 C99.93 98.27, 98.27 99.93, 96.52 101.48 C94.78 103.02, 92.92 104.47, 91 105.8 C89.09 107.12, 87.07 108.34, 85.01 109.42 C82.94 110.51, 80.8 111.47, 78.62 112.3 C76.44 113.13, 74.19 113.83, 71.92 114.39 C69.66 114.94, 67.35 115.37, 65.03 115.65 C62.72 115.93, 60.37 116.07, 58.04 116.07 C55.7 116.07, 53.36 115.93, 51.04 115.65 C48.73 115.37, 46.41 114.94, 44.15 114.39 C41.88 113.83, 39.64 113.13, 37.46 112.3 C35.28 111.47, 33.13 110.51, 31.07 109.42 C29 108.34, 26.99 107.12, 25.07 105.8 C23.15 104.47, 21.3 103.02, 19.55 101.48 C17.81 99.93, 16.14 98.27, 14.6 96.52 C13.05 94.78, 11.6 92.92, 10.27 91 C8.95 89.09, 7.73 87.07, 6.65 85.01 C5.56 82.94, 4.6 80.8, 3.77 78.62 C2.94 76.44, 2.24 74.19, 1.69 71.92 C1.13 69.66, 0.7 67.35, 0.42 65.03 C0.14 62.72, 0 60.37, 0 58.04 C0 55.7, 0.14 53.36, 0.42 51.04 C0.7 48.73, 1.13 46.41, 1.69 44.15 C2.24 41.88, 2.94 39.64, 3.77 37.46 C4.6 35.28, 5.56 33.13, 6.65 31.07 C7.73 29, 8.95 26.99, 10.27 25.07 C11.6 23.15, 13.05 21.3, 14.6 19.55 C16.14 17.81, 17.81 16.14, 19.55 14.6 C21.3 13.05, 23.15 11.6, 25.07 10.27 C26.99 8.95, 29 7.73, 31.07 6.65 C33.13 5.56, 35.28 4.6, 37.46 3.77 C39.64 2.94, 41.88 2.24, 44.15 1.69 C46.41 1.13, 48.73 0.7, 51.04 0.42 C53.36 0.14, 55.7 0, 58.04 0 C60.37 0, 62.72 0.14, 65.03 0.42 C67.35 0.7, 69.66 1.13, 71.92 1.69 C74.19 2.24, 76.44 2.94, 78.62 3.77 C80.8 4.6, 82.94 5.56, 85.01 6.65 C87.07 7.73, 89.09 8.95, 91 10.27 C92.92 11.6, 94.78 13.05, 96.52 14.6 C98.27 16.14, 99.93 17.81, 101.48 19.55 C103.02 21.3, 104.47 23.15, 105.8 25.07 C107.12 26.99, 108.34 29, 109.42 31.07 C110.51 33.13, 111.47 35.28, 112.3 37.46 C113.13 39.64, 113.83 41.88, 114.39 44.15 C114.94 46.41, 115.37 48.73, 115.65 51.04 C115.93 53.36, 116.07 55.7, 116.07 58.04" stroke="#db995a" stroke-width="1" fill="none"></path></g><g stroke-linecap="round"><g transform="translate(50.33462239968685 71.23323023970943) rotate(0 10.090055320305055 2.4436852728863414)"><path d="M0.11 -0.24 C1.67 0.3, 6.07 2.92, 9.41 3.82 C12.75 4.72, 18.31 4.96, 20.13 5.13 M-0.5 0.82 C1.02 1.69, 5.75 3.94, 9.13 4.5 C12.51 5.06, 17.85 4.05, 19.76 4.18" stroke="#ffffff" stroke-width="2" fill="none"></path></g></g><mask></mask><g stroke-linecap="round" transform="translate(54.83730047505742 40.57477637940201) rotate(0 1.3653920095075591 3.413480023768784)"><path d="M1.7 0.11 C1.94 0.11, 2.15 0.65, 2.29 1.08 C2.42 1.52, 2.47 2.01, 2.5 2.71 C2.53 3.4, 2.55 4.58, 2.46 5.24 C2.37 5.91, 2.21 6.51, 1.95 6.7 C1.69 6.89, 1.23 6.63, 0.88 6.37 C0.54 6.11, 0.05 5.78, -0.11 5.15 C-0.26 4.51, -0.12 3.34, -0.04 2.56 C0.04 1.78, 0.17 0.86, 0.39 0.47 C0.62 0.07, 1.11 0.27, 1.3 0.21 C1.49 0.14, 1.46 0.06, 1.52 0.08 M1.82 0.37 C2.07 0.29, 1.83 0.35, 1.93 0.82 C2.02 1.29, 2.3 2.5, 2.38 3.2 C2.46 3.9, 2.58 4.36, 2.43 5.01 C2.28 5.65, 1.71 6.77, 1.5 7.06 C1.29 7.34, 1.32 7.16, 1.17 6.72 C1.02 6.28, 0.74 5.16, 0.59 4.4 C0.45 3.65, 0.29 2.81, 0.29 2.22 C0.29 1.62, 0.37 1.26, 0.6 0.83 C0.82 0.4, 1.54 -0.16, 1.64 -0.34 C1.75 -0.53, 1.16 -0.33, 1.2 -0.25" stroke="none" stroke-width="0" fill="#ffffff"></path><path d="M1.47 -0.04 C1.77 -0.08, 2.18 0.59, 2.36 1.01 C2.55 1.43, 2.54 1.81, 2.56 2.49 C2.58 3.17, 2.61 4.44, 2.47 5.09 C2.33 5.75, 1.97 6.08, 1.71 6.39 C1.44 6.7, 1.13 7.11, 0.88 6.95 C0.64 6.79, 0.4 6.1, 0.23 5.42 C0.07 4.74, -0.16 3.68, -0.11 2.87 C-0.06 2.05, 0.32 0.96, 0.54 0.52 C0.75 0.09, 1.08 0.32, 1.17 0.26 C1.26 0.21, 1.02 0.14, 1.08 0.19 M1.22 -0.06 C1.52 -0.19, 2.14 0.17, 2.33 0.66 C2.51 1.14, 2.22 2.13, 2.32 2.84 C2.43 3.56, 3.04 4.27, 2.96 4.94 C2.89 5.61, 2.1 6.64, 1.85 6.87 C1.6 7.1, 1.68 6.59, 1.47 6.31 C1.25 6.04, 0.81 5.67, 0.58 5.23 C0.35 4.79, 0.13 4.43, 0.1 3.66 C0.08 2.89, 0.21 1.17, 0.45 0.62 C0.68 0.06, 1.35 0.35, 1.52 0.33 C1.69 0.31, 1.57 0.55, 1.47 0.5" stroke="#ffffff" stroke-width="2" fill="none"></path></g><g stroke-linecap="round" transform="translate(70.53638498738655 43.98825600000009) rotate(0 1.8432792128351139 3.413479999999936)"><path d="M2.13 0.02 C2.53 -0.04, 3.14 0.29, 3.35 0.81 C3.57 1.32, 3.43 2.3, 3.43 3.09 C3.42 3.89, 3.52 4.96, 3.34 5.58 C3.16 6.19, 2.75 6.65, 2.34 6.76 C1.92 6.87, 1.18 6.56, 0.84 6.23 C0.51 5.9, 0.46 5.4, 0.31 4.75 C0.17 4.11, -0.09 3.08, -0.05 2.36 C-0.01 1.64, 0.17 0.82, 0.56 0.43 C0.94 0.05, 2.01 0.06, 2.27 0.05 C2.52 0.04, 2.14 0.28, 2.11 0.36 M2.06 -0.38 C2.34 -0.59, 2.48 -0.19, 2.77 0.29 C3.05 0.77, 3.69 1.77, 3.76 2.49 C3.83 3.22, 3.31 3.91, 3.18 4.64 C3.05 5.37, 3.24 6.46, 2.97 6.88 C2.69 7.3, 2.07 7.37, 1.54 7.16 C1.02 6.94, 0.14 6.27, -0.17 5.6 C-0.49 4.92, -0.5 3.86, -0.35 3.12 C-0.2 2.38, 0.46 1.72, 0.74 1.16 C1.02 0.6, 1.24 -0.15, 1.35 -0.25 C1.45 -0.35, 1.35 0.38, 1.37 0.53" stroke="none" stroke-width="0" fill="#ffffff"></path><path d="M1.78 0.13 C2.17 0.03, 2.98 0.2, 3.25 0.62 C3.51 1.05, 3.32 1.97, 3.35 2.69 C3.39 3.41, 3.64 4.3, 3.46 4.94 C3.28 5.59, 2.6 6.29, 2.28 6.58 C1.96 6.87, 1.84 6.94, 1.55 6.68 C1.26 6.42, 0.78 5.66, 0.52 5.03 C0.27 4.41, 0.07 3.66, 0.04 2.93 C0.01 2.19, -0.01 1.16, 0.34 0.62 C0.69 0.08, 1.84 -0.26, 2.12 -0.32 C2.4 -0.39, 2.03 0.17, 2.02 0.24 M1.8 0.22 C2.18 0.13, 2.78 0, 3.16 0.5 C3.54 1.01, 4.01 2.49, 4.09 3.24 C4.16 4, 3.81 4.42, 3.6 5.06 C3.39 5.7, 3.32 6.75, 2.84 7.06 C2.37 7.37, 1.22 7.22, 0.75 6.9 C0.27 6.58, 0.04 5.83, 0 5.15 C-0.05 4.47, 0.43 3.5, 0.47 2.82 C0.51 2.14, -0.06 1.5, 0.23 1.07 C0.52 0.64, 1.85 0.48, 2.19 0.26 C2.54 0.05, 2.4 -0.3, 2.29 -0.22" stroke="#ffffff" stroke-width="2" fill="none"></path></g><g stroke-linecap="round"><g transform="translate(17.78402590730002 37.948033343062434) rotate(0 12.490067994008768 2.1137038143706377)"><path d="M0 0 C6.31 1.52, 13.13 2.05, 24.98 4.23 M0 0 C8.04 1.36, 16.97 2.72, 24.98 4.23" stroke="#ffffff" stroke-width="1" fill="none"></path></g></g><mask></mask><g stroke-linecap="round" transform="translate(42.62604198738882 32.6880000000001) rotate(9.169438851575915 10.808712687122352 11.209859582334047)"><path d="M11 0 C15.1 4.53, 18.41 8.81, 21.62 12 M11 0 C14.81 4.51, 18.69 8.69, 21.62 12 M21.62 12 C19.16 14.76, 15.5 18.21, 11 22.42 M21.62 12 C18.99 14.37, 17.31 16.67, 11 22.42 M11 22.42 C8.52 19.92, 6.3 17.83, 0 12 M11 22.42 C8.56 19.96, 6.21 17.97, 0 12 M0 12 C2.49 10.15, 4.82 6.12, 11 0 M0 12 C4.3 7.36, 7.69 3.56, 11 0" stroke="#ffffff" stroke-width="1" fill="none"></path></g><g stroke-linecap="round" transform="translate(63.96722653453435 36.236310739767305) rotate(9.169438851575915 10.808712687122352 11.209859582334047)"><path d="M11 0 C14.39 3.4, 17.55 7.6, 21.62 12 M11 0 C13.68 2.93, 16.13 6.14, 21.62 12 M21.62 12 C17.15 16.18, 13.38 19.6, 11 22.42 M21.62 12 C19.27 14.62, 16.85 16.64, 11 22.42 M11 22.42 C7.4 19.47, 4.23 15.34, 0 12 M11 22.42 C6.64 18.75, 2.82 14.11, 0 12 M0 12 C4.71 7.78, 7.24 3.83, 11 0 M0 12 C3.71 7.33, 8.26 3.44, 11 0" stroke="#ffffff" stroke-width="1" fill="none"></path></g><g stroke-linecap="round"><g transform="translate(85.08387409603529 49.41961813134867) rotate(0 19.804085553938876 2.421302430864671)"><path d="M0 0 C11.44 1.74, 23.83 2.32, 39.61 4.84 M0 0 C8.1 0.68, 16.58 2.5, 39.61 4.84" stroke="#ffffff" stroke-width="1" fill="none"></path></g></g><mask></mask></svg>