<svg version="1.1" xmlns="http://www.w3.org/2000/svg" viewBox="0 0 136.07211199999983 136.07211199999983" width="136.07211199999983" height="136.07211199999983">
  <!-- svg-source:excalidraw -->
  
  <defs>
    <style class="style-fonts">
      
    </style>
    
  </defs>
  <g stroke-linecap="round" transform="translate(10 9.999999999999886) rotate(0 58.03605599999992 58.036055999999974)"><path d="M116.07 58.04 C116.07 60.37, 115.93 62.72, 115.65 65.03 C115.37 67.35, 114.94 69.66, 114.39 71.92 C113.83 74.19, 113.13 76.44, 112.3 78.62 C111.47 80.8, 110.51 82.94, 109.42 85.01 C108.34 87.07, 107.12 89.09, 105.8 91 C104.47 92.92, 103.02 94.78, 101.48 96.52 C99.93 98.27, 98.27 99.93, 96.52 101.48 C94.78 103.02, 92.92 104.47, 91 105.8 C89.09 107.12, 87.07 108.34, 85.01 109.42 C82.94 110.51, 80.8 111.47, 78.62 112.3 C76.44 113.13, 74.19 113.83, 71.92 114.39 C69.66 114.94, 67.35 115.37, 65.03 115.65 C62.72 115.93, 60.37 116.07, 58.04 116.07 C55.7 116.07, 53.36 115.93, 51.04 115.65 C48.73 115.37, 46.41 114.94, 44.15 114.39 C41.88 113.83, 39.64 113.13, 37.46 112.3 C35.28 111.47, 33.13 110.51, 31.07 109.42 C29 108.34, 26.99 107.12, 25.07 105.8 C23.15 104.47, 21.3 103.02, 19.55 101.48 C17.81 99.93, 16.14 98.27, 14.6 96.52 C13.05 94.78, 11.6 92.92, 10.27 91 C8.95 89.09, 7.73 87.07, 6.65 85.01 C5.56 82.94, 4.6 80.8, 3.77 78.62 C2.94 76.44, 2.24 74.19, 1.69 71.92 C1.13 69.66, 0.7 67.35, 0.42 65.03 C0.14 62.72, 0 60.37, 0 58.04 C0 55.7, 0.14 53.36, 0.42 51.04 C0.7 48.73, 1.13 46.41, 1.69 44.15 C2.24 41.88, 2.94 39.64, 3.77 37.46 C4.6 35.28, 5.56 33.13, 6.65 31.07 C7.73 29, 8.95 26.99, 10.27 25.07 C11.6 23.15, 13.05 21.3, 14.6 19.55 C16.14 17.81, 17.81 16.14, 19.55 14.6 C21.3 13.05, 23.15 11.6, 25.07 10.27 C26.99 8.95, 29 7.73, 31.07 6.65 C33.13 5.56, 35.28 4.6, 37.46 3.77 C39.64 2.94, 41.88 2.24, 44.15 1.69 C46.41 1.13, 48.73 0.7, 51.04 0.42 C53.36 0.14, 55.7 0, 58.04 0 C60.37 0, 62.72 0.14, 65.03 0.42 C67.35 0.7, 69.66 1.13, 71.92 1.69 C74.19 2.24, 76.44 2.94, 78.62 3.77 C80.8 4.6, 82.94 5.56, 85.01 6.65 C87.07 7.73, 89.09 8.95, 91 10.27 C92.92 11.6, 94.78 13.05, 96.52 14.6 C98.27 16.14, 99.93 17.81, 101.48 19.55 C103.02 21.3, 104.47 23.15, 105.8 25.07 C107.12 26.99, 108.34 29, 109.42 31.07 C110.51 33.13, 111.47 35.28, 112.3 37.46 C113.13 39.64, 113.83 41.88, 114.39 44.15 C114.94 46.41, 115.37 48.73, 115.65 51.04 C115.93 53.36, 116.07 55.7, 116.07 58.04" stroke="none" stroke-width="0" fill="#89bd9e"></path><path d="M116.07 58.04 C116.07 60.37, 115.93 62.72, 115.65 65.03 C115.37 67.35, 114.94 69.66, 114.39 71.92 C113.83 74.19, 113.13 76.44, 112.3 78.62 C111.47 80.8, 110.51 82.94, 109.42 85.01 C108.34 87.07, 107.12 89.09, 105.8 91 C104.47 92.92, 103.02 94.78, 101.48 96.52 C99.93 98.27, 98.27 99.93, 96.52 101.48 C94.78 103.02, 92.92 104.47, 91 105.8 C89.09 107.12, 87.07 108.34, 85.01 109.42 C82.94 110.51, 80.8 111.47, 78.62 112.3 C76.44 113.13, 74.19 113.83, 71.92 114.39 C69.66 114.94, 67.35 115.37, 65.03 115.65 C62.72 115.93, 60.37 116.07, 58.04 116.07 C55.7 116.07, 53.36 115.93, 51.04 115.65 C48.73 115.37, 46.41 114.94, 44.15 114.39 C41.88 113.83, 39.64 113.13, 37.46 112.3 C35.28 111.47, 33.13 110.51, 31.07 109.42 C29 108.34, 26.99 107.12, 25.07 105.8 C23.15 104.47, 21.3 103.02, 19.55 101.48 C17.81 99.93, 16.14 98.27, 14.6 96.52 C13.05 94.78, 11.6 92.92, 10.27 91 C8.95 89.09, 7.73 87.07, 6.65 85.01 C5.56 82.94, 4.6 80.8, 3.77 78.62 C2.94 76.44, 2.24 74.19, 1.69 71.92 C1.13 69.66, 0.7 67.35, 0.42 65.03 C0.14 62.72, 0 60.37, 0 58.04 C0 55.7, 0.14 53.36, 0.42 51.04 C0.7 48.73, 1.13 46.41, 1.69 44.15 C2.24 41.88, 2.94 39.64, 3.77 37.46 C4.6 35.28, 5.56 33.13, 6.65 31.07 C7.73 29, 8.95 26.99, 10.27 25.07 C11.6 23.15, 13.05 21.3, 14.6 19.55 C16.14 17.81, 17.81 16.14, 19.55 14.6 C21.3 13.05, 23.15 11.6, 25.07 10.27 C26.99 8.95, 29 7.73, 31.07 6.65 C33.13 5.56, 35.28 4.6, 37.46 3.77 C39.64 2.94, 41.88 2.24, 44.15 1.69 C46.41 1.13, 48.73 0.7, 51.04 0.42 C53.36 0.14, 55.7 0, 58.04 0 C60.37 0, 62.72 0.14, 65.03 0.42 C67.35 0.7, 69.66 1.13, 71.92 1.69 C74.19 2.24, 76.44 2.94, 78.62 3.77 C80.8 4.6, 82.94 5.56, 85.01 6.65 C87.07 7.73, 89.09 8.95, 91 10.27 C92.92 11.6, 94.78 13.05, 96.52 14.6 C98.27 16.14, 99.93 17.81, 101.48 19.55 C103.02 21.3, 104.47 23.15, 105.8 25.07 C107.12 26.99, 108.34 29, 109.42 31.07 C110.51 33.13, 111.47 35.28, 112.3 37.46 C113.13 39.64, 113.83 41.88, 114.39 44.15 C114.94 46.41, 115.37 48.73, 115.65 51.04 C115.93 53.36, 116.07 55.7, 116.07 58.04" stroke="#89bd9e" stroke-width="1" fill="none"></path></g><g stroke-linecap="round"><g transform="translate(50.33462239968776 71.23323023970909) rotate(0 10.090055320305055 2.4436852728863414)"><path d="M-0.42 -0.45 C1.11 0.17, 5.86 2.6, 9.25 3.4 C12.65 4.2, 18.06 4.02, 19.93 4.34 M0.37 0.51 C1.83 1.21, 5.71 3.17, 8.89 3.86 C12.07 4.56, 17.48 4.58, 19.45 4.66" stroke="#ffffff" stroke-width="2" fill="none"></path></g></g><mask></mask><g stroke-linecap="round" transform="translate(54.83730047505833 40.574776379401555) rotate(0 1.3653920095071044 3.413480023768784)"><path d="M1.39 0.01 C1.71 0.09, 2.11 0.7, 2.31 1.25 C2.52 1.79, 2.61 2.65, 2.62 3.28 C2.63 3.91, 2.49 4.49, 2.38 5.02 C2.26 5.55, 2.23 6.25, 1.94 6.47 C1.66 6.7, 0.92 6.57, 0.66 6.36 C0.4 6.15, 0.49 5.85, 0.36 5.21 C0.24 4.57, -0.15 3.3, -0.1 2.51 C-0.06 1.72, 0.42 0.88, 0.64 0.45 C0.85 0.01, 1.03 -0.01, 1.2 -0.1 C1.37 -0.18, 1.61 -0.15, 1.66 -0.06 M1.32 0.37 C1.58 0.38, 1.81 0.24, 1.98 0.76 C2.14 1.29, 2.18 2.7, 2.29 3.53 C2.4 4.36, 2.76 5.22, 2.64 5.72 C2.52 6.22, 1.86 6.34, 1.59 6.53 C1.33 6.71, 1.35 7.08, 1.06 6.83 C0.77 6.57, 0.08 5.65, -0.16 5 C-0.4 4.34, -0.5 3.72, -0.4 2.9 C-0.3 2.09, 0.19 0.53, 0.44 0.1 C0.7 -0.32, 0.86 0.4, 1.11 0.35 C1.37 0.29, 1.92 -0.31, 1.96 -0.23" stroke="none" stroke-width="0" fill="#ffffff"></path><path d="M1.35 0.3 C1.63 0.25, 1.78 0.33, 1.99 0.71 C2.21 1.09, 2.52 1.96, 2.65 2.58 C2.78 3.19, 2.89 3.75, 2.76 4.4 C2.63 5.06, 2.16 6.13, 1.86 6.51 C1.57 6.89, 1.26 6.87, 0.96 6.68 C0.66 6.48, 0.22 5.87, 0.06 5.33 C-0.1 4.79, 0.01 4.16, 0.01 3.43 C0.01 2.69, -0.14 1.48, 0.03 0.95 C0.2 0.42, 0.86 0.42, 1.04 0.26 C1.21 0.1, 1.03 0.02, 1.09 -0.01 M1.3 -0.31 C1.52 -0.35, 2.05 -0.11, 2.31 0.4 C2.56 0.9, 2.81 2.02, 2.84 2.73 C2.87 3.43, 2.57 3.96, 2.48 4.63 C2.4 5.31, 2.55 6.37, 2.34 6.79 C2.12 7.2, 1.56 7.47, 1.17 7.13 C0.78 6.8, 0.19 5.46, 0 4.78 C-0.19 4.1, -0.01 3.73, 0.04 3.05 C0.09 2.38, 0.03 1.31, 0.31 0.74 C0.59 0.17, 1.6 -0.24, 1.73 -0.37 C1.87 -0.5, 1.14 -0.13, 1.1 -0.05" stroke="#ffffff" stroke-width="2" fill="none"></path></g><g stroke-linecap="round" transform="translate(70.53638498738655 43.98825599999975) rotate(0 1.8432792128351139 3.4134799999999927)"><path d="M1.66 0.03 C2.11 -0.09, 2.82 0.1, 3.19 0.48 C3.56 0.87, 3.87 1.59, 3.88 2.34 C3.89 3.08, 3.5 4.32, 3.27 4.98 C3.03 5.64, 2.79 5.98, 2.45 6.31 C2.1 6.64, 1.51 7.12, 1.21 6.95 C0.9 6.77, 0.83 5.9, 0.61 5.29 C0.39 4.67, -0.06 4.02, -0.12 3.27 C-0.17 2.52, 0 1.29, 0.28 0.78 C0.57 0.27, 1.36 0.31, 1.58 0.2 C1.79 0.09, 1.55 0.06, 1.58 0.13 M2.03 -0.36 C2.38 -0.51, 2.29 -0.33, 2.61 0.19 C2.93 0.7, 3.76 1.95, 3.96 2.71 C4.16 3.48, 4.05 4.08, 3.79 4.77 C3.54 5.45, 2.76 6.53, 2.42 6.81 C2.07 7.09, 2.03 6.75, 1.72 6.43 C1.41 6.12, 0.75 5.49, 0.54 4.91 C0.33 4.33, 0.54 3.66, 0.46 2.95 C0.38 2.23, -0.19 1.01, 0.07 0.59 C0.33 0.18, 1.79 0.57, 2.01 0.46 C2.23 0.34, 1.34 -0.04, 1.37 -0.11" stroke="none" stroke-width="0" fill="#ffffff"></path><path d="M1.97 -0.09 C2.43 -0.21, 2.79 0.16, 3.1 0.62 C3.41 1.09, 3.82 2.01, 3.84 2.69 C3.86 3.38, 3.4 4.13, 3.21 4.75 C3.02 5.37, 3.01 6.12, 2.68 6.4 C2.36 6.69, 1.7 6.65, 1.27 6.47 C0.85 6.3, 0.33 5.97, 0.14 5.35 C-0.04 4.73, 0.11 3.52, 0.15 2.76 C0.18 2.01, 0.08 1.3, 0.38 0.81 C0.68 0.33, 1.75 -0.03, 1.96 -0.12 C2.17 -0.22, 1.74 0.19, 1.66 0.26 M1.82 0.14 C2.22 0.23, 2.59 0.79, 2.9 1.31 C3.22 1.83, 3.7 2.48, 3.7 3.27 C3.7 4.05, 3.1 5.4, 2.89 6.02 C2.67 6.65, 2.64 6.97, 2.4 7 C2.16 7.03, 1.88 6.58, 1.43 6.19 C0.97 5.8, -0.11 5.34, -0.31 4.66 C-0.51 3.99, 0.04 2.78, 0.22 2.16 C0.4 1.53, 0.51 1.29, 0.77 0.9 C1.02 0.51, 1.56 -0.07, 1.76 -0.18 C1.97 -0.29, 1.98 0.24, 2.01 0.26" stroke="#ffffff" stroke-width="2" fill="none"></path></g><g stroke-linecap="round"><g transform="translate(17.78402590730002 37.94803334306209) rotate(0 12.490067994008768 2.1137038143706945)"><path d="M0 0 C5.01 0.04, 11.44 2.75, 24.98 4.23 M0 0 C7.1 1.34, 13.12 2.09, 24.98 4.23" stroke="#ffffff" stroke-width="1" fill="none"></path></g></g><mask></mask><g stroke-linecap="round" transform="translate(42.62604198738882 32.687999999999874) rotate(9.169438851575915 10.808712687122352 11.209859582334047)"><path d="M11 0 C13.61 4.33, 18.49 7.59, 21.62 12 M11 0 C14.93 3.88, 18.39 8.6, 21.62 12 M21.62 12 C18.4 14.74, 16.29 16.77, 11 22.42 M21.62 12 C18.82 14.51, 16.55 16.87, 11 22.42 M11 22.42 C7.84 18.97, 4.93 16.02, 0 12 M11 22.42 C7.1 19.35, 3.95 15.77, 0 12 M0 12 C4.42 7.51, 8.49 2.35, 11 0 M0 12 C4.16 7.56, 8.3 2.51, 11 0" stroke="#ffffff" stroke-width="1" fill="none"></path></g><g stroke-linecap="round" transform="translate(63.96722653453435 36.236310739766964) rotate(9.169438851575915 10.808712687122352 11.209859582334047)"><path d="M11 0 C13.68 3.3, 15.35 5.71, 21.62 12 M11 0 C13.82 3.36, 17.41 6.93, 21.62 12 M21.62 12 C18.66 15.17, 14.98 17.36, 11 22.42 M21.62 12 C18.88 14.81, 15.98 17.15, 11 22.42 M11 22.42 C6.24 18.46, 1.87 14.41, 0 12 M11 22.42 C8.03 19.38, 4.52 16.42, 0 12 M0 12 C3.1 8.66, 5.53 6.47, 11 0 M0 12 C2.64 9.14, 4.67 6.44, 11 0" stroke="#ffffff" stroke-width="1" fill="none"></path></g><g stroke-linecap="round"><g transform="translate(85.0838740960362 49.41961813134833) rotate(0 19.804085553938876 2.4213024308647277)"><path d="M0 0 C10.83 0.84, 20.64 2.31, 39.61 4.84 M0 0 C14.2 2.05, 28.63 3.58, 39.61 4.84" stroke="#ffffff" stroke-width="1" fill="none"></path></g></g><mask></mask></svg>