<svg version="1.1" xmlns="http://www.w3.org/2000/svg" viewBox="0 0 136.07211199999983 136.07211199999983" width="136.07211199999983" height="136.07211199999983">
  <!-- svg-source:excalidraw -->
  
  <defs>
    <style class="style-fonts">
      
    </style>
    
  </defs>
  <g stroke-linecap="round" transform="translate(10 10) rotate(0 58.03605599999992 58.036055999999974)"><path d="M116.07 58.04 C116.07 60.37, 115.93 62.72, 115.65 65.03 C115.37 67.35, 114.94 69.66, 114.39 71.92 C113.83 74.19, 113.13 76.44, 112.3 78.62 C111.47 80.8, 110.51 82.94, 109.42 85.01 C108.34 87.07, 107.12 89.09, 105.8 91 C104.47 92.92, 103.02 94.78, 101.48 96.52 C99.93 98.27, 98.27 99.93, 96.52 101.48 C94.78 103.02, 92.92 104.47, 91 105.8 C89.09 107.12, 87.07 108.34, 85.01 109.42 C82.94 110.51, 80.8 111.47, 78.62 112.3 C76.44 113.13, 74.19 113.83, 71.92 114.39 C69.66 114.94, 67.35 115.37, 65.03 115.65 C62.72 115.93, 60.37 116.07, 58.04 116.07 C55.7 116.07, 53.36 115.93, 51.04 115.65 C48.73 115.37, 46.41 114.94, 44.15 114.39 C41.88 113.83, 39.64 113.13, 37.46 112.3 C35.28 111.47, 33.13 110.51, 31.07 109.42 C29 108.34, 26.99 107.12, 25.07 105.8 C23.15 104.47, 21.3 103.02, 19.55 101.48 C17.81 99.93, 16.14 98.27, 14.6 96.52 C13.05 94.78, 11.6 92.92, 10.27 91 C8.95 89.09, 7.73 87.07, 6.65 85.01 C5.56 82.94, 4.6 80.8, 3.77 78.62 C2.94 76.44, 2.24 74.19, 1.69 71.92 C1.13 69.66, 0.7 67.35, 0.42 65.03 C0.14 62.72, 0 60.37, 0 58.04 C0 55.7, 0.14 53.36, 0.42 51.04 C0.7 48.73, 1.13 46.41, 1.69 44.15 C2.24 41.88, 2.94 39.64, 3.77 37.46 C4.6 35.28, 5.56 33.13, 6.65 31.07 C7.73 29, 8.95 26.99, 10.27 25.07 C11.6 23.15, 13.05 21.3, 14.6 19.55 C16.14 17.81, 17.81 16.14, 19.55 14.6 C21.3 13.05, 23.15 11.6, 25.07 10.27 C26.99 8.95, 29 7.73, 31.07 6.65 C33.13 5.56, 35.28 4.6, 37.46 3.77 C39.64 2.94, 41.88 2.24, 44.15 1.69 C46.41 1.13, 48.73 0.7, 51.04 0.42 C53.36 0.14, 55.7 0, 58.04 0 C60.37 0, 62.72 0.14, 65.03 0.42 C67.35 0.7, 69.66 1.13, 71.92 1.69 C74.19 2.24, 76.44 2.94, 78.62 3.77 C80.8 4.6, 82.94 5.56, 85.01 6.65 C87.07 7.73, 89.09 8.95, 91 10.27 C92.92 11.6, 94.78 13.05, 96.52 14.6 C98.27 16.14, 99.93 17.81, 101.48 19.55 C103.02 21.3, 104.47 23.15, 105.8 25.07 C107.12 26.99, 108.34 29, 109.42 31.07 C110.51 33.13, 111.47 35.28, 112.3 37.46 C113.13 39.64, 113.83 41.88, 114.39 44.15 C114.94 46.41, 115.37 48.73, 115.65 51.04 C115.93 53.36, 116.07 55.7, 116.07 58.04" stroke="none" stroke-width="0" fill="#776885"></path><path d="M116.07 58.04 C116.07 60.37, 115.93 62.72, 115.65 65.03 C115.37 67.35, 114.94 69.66, 114.39 71.92 C113.83 74.19, 113.13 76.44, 112.3 78.62 C111.47 80.8, 110.51 82.94, 109.42 85.01 C108.34 87.07, 107.12 89.09, 105.8 91 C104.47 92.92, 103.02 94.78, 101.48 96.52 C99.93 98.27, 98.27 99.93, 96.52 101.48 C94.78 103.02, 92.92 104.47, 91 105.8 C89.09 107.12, 87.07 108.34, 85.01 109.42 C82.94 110.51, 80.8 111.47, 78.62 112.3 C76.44 113.13, 74.19 113.83, 71.92 114.39 C69.66 114.94, 67.35 115.37, 65.03 115.65 C62.72 115.93, 60.37 116.07, 58.04 116.07 C55.7 116.07, 53.36 115.93, 51.04 115.65 C48.73 115.37, 46.41 114.94, 44.15 114.39 C41.88 113.83, 39.64 113.13, 37.46 112.3 C35.28 111.47, 33.13 110.51, 31.07 109.42 C29 108.34, 26.99 107.12, 25.07 105.8 C23.15 104.47, 21.3 103.02, 19.55 101.48 C17.81 99.93, 16.14 98.27, 14.6 96.52 C13.05 94.78, 11.6 92.92, 10.27 91 C8.95 89.09, 7.73 87.07, 6.65 85.01 C5.56 82.94, 4.6 80.8, 3.77 78.62 C2.94 76.44, 2.24 74.19, 1.69 71.92 C1.13 69.66, 0.7 67.35, 0.42 65.03 C0.14 62.72, 0 60.37, 0 58.04 C0 55.7, 0.14 53.36, 0.42 51.04 C0.7 48.73, 1.13 46.41, 1.69 44.15 C2.24 41.88, 2.94 39.64, 3.77 37.46 C4.6 35.28, 5.56 33.13, 6.65 31.07 C7.73 29, 8.95 26.99, 10.27 25.07 C11.6 23.15, 13.05 21.3, 14.6 19.55 C16.14 17.81, 17.81 16.14, 19.55 14.6 C21.3 13.05, 23.15 11.6, 25.07 10.27 C26.99 8.95, 29 7.73, 31.07 6.65 C33.13 5.56, 35.28 4.6, 37.46 3.77 C39.64 2.94, 41.88 2.24, 44.15 1.69 C46.41 1.13, 48.73 0.7, 51.04 0.42 C53.36 0.14, 55.7 0, 58.04 0 C60.37 0, 62.72 0.14, 65.03 0.42 C67.35 0.7, 69.66 1.13, 71.92 1.69 C74.19 2.24, 76.44 2.94, 78.62 3.77 C80.8 4.6, 82.94 5.56, 85.01 6.65 C87.07 7.73, 89.09 8.95, 91 10.27 C92.92 11.6, 94.78 13.05, 96.52 14.6 C98.27 16.14, 99.93 17.81, 101.48 19.55 C103.02 21.3, 104.47 23.15, 105.8 25.07 C107.12 26.99, 108.34 29, 109.42 31.07 C110.51 33.13, 111.47 35.28, 112.3 37.46 C113.13 39.64, 113.83 41.88, 114.39 44.15 C114.94 46.41, 115.37 48.73, 115.65 51.04 C115.93 53.36, 116.07 55.7, 116.07 58.04" stroke="#776885" stroke-width="1" fill="none"></path></g><g stroke-linecap="round"><g transform="translate(50.33462239968776 71.2332302397092) rotate(0 10.090055320305055 2.4436852728863414)"><path d="M0.35 0.07 C1.8 0.69, 5.78 3.42, 9.14 4.25 C12.49 5.08, 18.69 4.91, 20.47 5.04 M-0.14 -0.37 C1.21 0.33, 5.31 2.48, 8.72 3.49 C12.12 4.5, 18.43 5.37, 20.27 5.71" stroke="#ffffff" stroke-width="2" fill="none"></path></g></g><mask></mask><g stroke-linecap="round" transform="translate(54.83730047505833 40.57477637940167) rotate(0 1.3653920095071044 3.413480023768784)"><path d="M1.01 -0.18 C1.26 -0.27, 1.62 0.26, 1.87 0.72 C2.13 1.17, 2.4 1.94, 2.55 2.54 C2.7 3.14, 2.85 3.67, 2.77 4.33 C2.69 4.98, 2.33 6.13, 2.08 6.48 C1.83 6.84, 1.52 6.55, 1.26 6.45 C0.99 6.36, 0.72 6.44, 0.5 5.91 C0.28 5.38, -0.06 4.1, -0.06 3.28 C-0.06 2.46, 0.29 1.52, 0.51 0.99 C0.72 0.45, 1.09 0.2, 1.23 0.07 C1.38 -0.06, 1.4 0.13, 1.38 0.18 M1.65 -0.08 C1.95 -0.14, 1.89 0.62, 2 1 C2.12 1.39, 2.21 1.6, 2.36 2.23 C2.51 2.87, 3.02 4.15, 2.92 4.8 C2.82 5.45, 2.07 5.85, 1.75 6.15 C1.42 6.44, 1.21 6.74, 0.98 6.56 C0.75 6.38, 0.49 5.57, 0.39 5.08 C0.29 4.58, 0.36 4.25, 0.38 3.6 C0.4 2.95, 0.3 1.85, 0.51 1.17 C0.73 0.5, 1.6 -0.22, 1.67 -0.44 C1.73 -0.66, 1.02 -0.29, 0.88 -0.14" stroke="none" stroke-width="0" fill="#ffffff"></path><path d="M1.32 0.09 C1.54 0.07, 2.04 0.31, 2.22 0.82 C2.4 1.33, 2.34 2.41, 2.42 3.15 C2.5 3.89, 2.86 4.71, 2.71 5.26 C2.56 5.81, 1.82 6.31, 1.52 6.45 C1.22 6.6, 1.14 6.4, 0.91 6.14 C0.67 5.87, 0.26 5.54, 0.1 4.88 C-0.06 4.21, -0.12 2.83, -0.06 2.15 C0.01 1.48, 0.2 1.11, 0.5 0.8 C0.8 0.49, 1.53 0.4, 1.75 0.27 C1.97 0.15, 1.86 0.09, 1.83 0.06 M1.3 0.36 C1.54 0.23, 2.07 0.33, 2.28 0.66 C2.48 0.99, 2.53 1.67, 2.52 2.32 C2.52 2.98, 2.36 3.86, 2.26 4.58 C2.16 5.31, 2.07 6.37, 1.91 6.66 C1.74 6.95, 1.57 6.46, 1.26 6.31 C0.95 6.16, 0.27 6.34, 0.05 5.74 C-0.17 5.14, -0.06 3.53, -0.06 2.71 C-0.05 1.88, -0.13 1.25, 0.08 0.78 C0.28 0.32, 0.95 0.05, 1.2 -0.09 C1.45 -0.23, 1.53 -0.05, 1.57 -0.04" stroke="#ffffff" stroke-width="2" fill="none"></path></g><g stroke-linecap="round" transform="translate(70.53638498738655 43.988255999999865) rotate(0 1.8432792128351139 3.4134799999999927)"><path d="M1.56 -0.19 C2 -0.25, 2.83 0.13, 3.22 0.63 C3.61 1.14, 3.91 2.1, 3.91 2.85 C3.9 3.59, 3.39 4.43, 3.17 5.08 C2.96 5.73, 2.99 6.43, 2.62 6.73 C2.25 7.02, 1.29 7.11, 0.95 6.84 C0.62 6.58, 0.78 5.77, 0.61 5.15 C0.44 4.52, -0.04 3.8, -0.07 3.1 C-0.11 2.4, 0.1 1.42, 0.41 0.93 C0.73 0.45, 1.59 0.35, 1.84 0.19 C2.09 0.03, 1.92 0, 1.91 -0.02 M1.6 -0.08 C2.06 -0.3, 3.1 -0.14, 3.41 0.35 C3.73 0.85, 3.47 2.17, 3.5 2.89 C3.53 3.6, 3.8 4.07, 3.6 4.66 C3.4 5.25, 2.71 6.08, 2.3 6.44 C1.89 6.79, 1.54 6.92, 1.14 6.79 C0.73 6.67, 0.01 6.29, -0.12 5.69 C-0.26 5.09, 0.2 3.91, 0.32 3.21 C0.44 2.5, 0.46 2.02, 0.62 1.44 C0.77 0.86, 1.1 -0.01, 1.25 -0.29 C1.39 -0.57, 1.39 -0.44, 1.48 -0.27" stroke="none" stroke-width="0" fill="#ffffff"></path><path d="M2.07 -0.13 C2.38 -0.13, 2.63 0.11, 2.88 0.69 C3.14 1.28, 3.55 2.61, 3.6 3.37 C3.64 4.12, 3.41 4.63, 3.15 5.21 C2.89 5.8, 2.44 6.66, 2.04 6.87 C1.63 7.09, 1.03 6.85, 0.74 6.5 C0.45 6.14, 0.45 5.42, 0.3 4.74 C0.14 4.06, -0.33 3.07, -0.2 2.41 C-0.08 1.76, 0.62 1.17, 1.03 0.81 C1.45 0.46, 2.12 0.38, 2.29 0.27 C2.46 0.16, 2.13 0.15, 2.05 0.13 M2.39 0.16 C2.74 0.16, 3.05 0.45, 3.24 0.89 C3.43 1.34, 3.54 2.08, 3.52 2.83 C3.5 3.58, 3.28 4.69, 3.1 5.37 C2.93 6.06, 2.87 6.81, 2.46 6.96 C2.04 7.11, 0.95 6.64, 0.62 6.27 C0.29 5.9, 0.65 5.42, 0.49 4.74 C0.32 4.05, -0.4 2.85, -0.38 2.15 C-0.37 1.46, 0.18 0.85, 0.57 0.55 C0.95 0.25, 1.71 0.41, 1.93 0.36 C2.16 0.31, 1.96 0.19, 1.91 0.25" stroke="#ffffff" stroke-width="2" fill="none"></path></g><g stroke-linecap="round"><g transform="translate(17.78402590730002 37.94803334306221) rotate(0 12.490067994008768 2.1137038143706945)"><path d="M0 0 C7.78 1.57, 14.93 3.03, 24.98 4.23 M0 0 C7.57 1.65, 14.39 2.67, 24.98 4.23" stroke="#ffffff" stroke-width="1" fill="none"></path></g></g><mask></mask><g stroke-linecap="round" transform="translate(42.62604198738882 32.68799999999999) rotate(9.169438851575915 10.808712687122352 11.209859582334047)"><path d="M11 0 C14.21 2.65, 16.78 6.18, 21.62 12 M11 0 C14.23 4.02, 17.51 8.09, 21.62 12 M21.62 12 C18.91 15.24, 16.91 17.28, 11 22.42 M21.62 12 C19.22 14.64, 16.16 17.3, 11 22.42 M11 22.42 C8.13 19.07, 6 17.38, 0 12 M11 22.42 C6.56 18.74, 2.89 14.51, 0 12 M0 12 C3.36 9.58, 5.29 5.1, 11 0 M0 12 C3.81 7.51, 8.27 2.88, 11 0" stroke="#ffffff" stroke-width="1" fill="none"></path></g><g stroke-linecap="round" transform="translate(63.96722653453435 36.23631073976708) rotate(9.169438851575915 10.808712687122352 11.209859582334047)"><path d="M11 0 C15.73 4.12, 19.51 9, 21.62 12 M11 0 C13.99 3.01, 16.44 6.37, 21.62 12 M21.62 12 C17.72 14.92, 15.35 18.54, 11 22.42 M21.62 12 C19.09 14.1, 16.66 16.64, 11 22.42 M11 22.42 C8.08 19.17, 5.55 16.17, 0 12 M11 22.42 C7.83 19.18, 4.88 16.74, 0 12 M0 12 C4.26 8.49, 7.67 3.83, 11 0 M0 12 C3.13 8.8, 6.47 5.12, 11 0" stroke="#ffffff" stroke-width="1" fill="none"></path></g><g stroke-linecap="round"><g transform="translate(85.0838740960362 49.41961813134844) rotate(0 19.804085553938876 2.4213024308647277)"><path d="M0 0 C10.31 0.04, 19.22 1.54, 39.61 4.84 M0 0 C8.13 1.02, 16.75 1.63, 39.61 4.84" stroke="#ffffff" stroke-width="1" fill="none"></path></g></g><mask></mask></svg>