<svg version="1.1" xmlns="http://www.w3.org/2000/svg" viewBox="0 0 136.07211199999983 138.1240637390997" width="136.07211199999983" height="138.1240637390997">
  <!-- svg-source:excalidraw -->
  
  <defs>
    <style class="style-fonts">
      
    </style>
    
  </defs>
  <g stroke-linecap="round" transform="translate(10 12.051951739099877) rotate(0 58.03605599999992 58.03605599999992)"><path d="M116.07 58.04 C116.07 60.37, 115.93 62.72, 115.65 65.03 C115.37 67.35, 114.94 69.66, 114.39 71.92 C113.83 74.19, 113.13 76.44, 112.3 78.62 C111.47 80.8, 110.51 82.94, 109.42 85.01 C108.34 87.07, 107.12 89.09, 105.8 91 C104.47 92.92, 103.02 94.78, 101.48 96.52 C99.93 98.27, 98.27 99.93, 96.52 101.48 C94.78 103.02, 92.92 104.47, 91 105.8 C89.09 107.12, 87.07 108.34, 85.01 109.42 C82.94 110.51, 80.8 111.47, 78.62 112.3 C76.44 113.13, 74.19 113.83, 71.92 114.39 C69.66 114.94, 67.35 115.37, 65.03 115.65 C62.72 115.93, 60.37 116.07, 58.04 116.07 C55.7 116.07, 53.36 115.93, 51.04 115.65 C48.73 115.37, 46.41 114.94, 44.15 114.39 C41.88 113.83, 39.64 113.13, 37.46 112.3 C35.28 111.47, 33.13 110.51, 31.07 109.42 C29 108.34, 26.99 107.12, 25.07 105.8 C23.15 104.47, 21.3 103.02, 19.55 101.48 C17.81 99.93, 16.14 98.27, 14.6 96.52 C13.05 94.78, 11.6 92.92, 10.27 91 C8.95 89.09, 7.73 87.07, 6.65 85.01 C5.56 82.94, 4.6 80.8, 3.77 78.62 C2.94 76.44, 2.24 74.19, 1.69 71.92 C1.13 69.66, 0.7 67.35, 0.42 65.03 C0.14 62.72, 0 60.37, 0 58.04 C0 55.7, 0.14 53.36, 0.42 51.04 C0.7 48.73, 1.13 46.41, 1.69 44.15 C2.24 41.88, 2.94 39.64, 3.77 37.46 C4.6 35.28, 5.56 33.13, 6.65 31.07 C7.73 29, 8.95 26.99, 10.27 25.07 C11.6 23.15, 13.05 21.3, 14.6 19.55 C16.14 17.81, 17.81 16.14, 19.55 14.6 C21.3 13.05, 23.15 11.6, 25.07 10.27 C26.99 8.95, 29 7.73, 31.07 6.65 C33.13 5.56, 35.28 4.6, 37.46 3.77 C39.64 2.94, 41.88 2.24, 44.15 1.69 C46.41 1.13, 48.73 0.7, 51.04 0.42 C53.36 0.14, 55.7 0, 58.04 0 C60.37 0, 62.72 0.14, 65.03 0.42 C67.35 0.7, 69.66 1.13, 71.92 1.69 C74.19 2.24, 76.44 2.94, 78.62 3.77 C80.8 4.6, 82.94 5.56, 85.01 6.65 C87.07 7.73, 89.09 8.95, 91 10.27 C92.92 11.6, 94.78 13.05, 96.52 14.6 C98.27 16.14, 99.93 17.81, 101.48 19.55 C103.02 21.3, 104.47 23.15, 105.8 25.07 C107.12 26.99, 108.34 29, 109.42 31.07 C110.51 33.13, 111.47 35.28, 112.3 37.46 C113.13 39.64, 113.83 41.88, 114.39 44.15 C114.94 46.41, 115.37 48.73, 115.65 51.04 C115.93 53.36, 116.07 55.7, 116.07 58.04" stroke="none" stroke-width="0" fill="#db995a"></path><path d="M116.07 58.04 C116.07 60.37, 115.93 62.72, 115.65 65.03 C115.37 67.35, 114.94 69.66, 114.39 71.92 C113.83 74.19, 113.13 76.44, 112.3 78.62 C111.47 80.8, 110.51 82.94, 109.42 85.01 C108.34 87.07, 107.12 89.09, 105.8 91 C104.47 92.92, 103.02 94.78, 101.48 96.52 C99.93 98.27, 98.27 99.93, 96.52 101.48 C94.78 103.02, 92.92 104.47, 91 105.8 C89.09 107.12, 87.07 108.34, 85.01 109.42 C82.94 110.51, 80.8 111.47, 78.62 112.3 C76.44 113.13, 74.19 113.83, 71.92 114.39 C69.66 114.94, 67.35 115.37, 65.03 115.65 C62.72 115.93, 60.37 116.07, 58.04 116.07 C55.7 116.07, 53.36 115.93, 51.04 115.65 C48.73 115.37, 46.41 114.94, 44.15 114.39 C41.88 113.83, 39.64 113.13, 37.46 112.3 C35.28 111.47, 33.13 110.51, 31.07 109.42 C29 108.34, 26.99 107.12, 25.07 105.8 C23.15 104.47, 21.3 103.02, 19.55 101.48 C17.81 99.93, 16.14 98.27, 14.6 96.52 C13.05 94.78, 11.6 92.92, 10.27 91 C8.95 89.09, 7.73 87.07, 6.65 85.01 C5.56 82.94, 4.6 80.8, 3.77 78.62 C2.94 76.44, 2.24 74.19, 1.69 71.92 C1.13 69.66, 0.7 67.35, 0.42 65.03 C0.14 62.72, 0 60.37, 0 58.04 C0 55.7, 0.14 53.36, 0.42 51.04 C0.7 48.73, 1.13 46.41, 1.69 44.15 C2.24 41.88, 2.94 39.64, 3.77 37.46 C4.6 35.28, 5.56 33.13, 6.65 31.07 C7.73 29, 8.95 26.99, 10.27 25.07 C11.6 23.15, 13.05 21.3, 14.6 19.55 C16.14 17.81, 17.81 16.14, 19.55 14.6 C21.3 13.05, 23.15 11.6, 25.07 10.27 C26.99 8.95, 29 7.73, 31.07 6.65 C33.13 5.56, 35.28 4.6, 37.46 3.77 C39.64 2.94, 41.88 2.24, 44.15 1.69 C46.41 1.13, 48.73 0.7, 51.04 0.42 C53.36 0.14, 55.7 0, 58.04 0 C60.37 0, 62.72 0.14, 65.03 0.42 C67.35 0.7, 69.66 1.13, 71.92 1.69 C74.19 2.24, 76.44 2.94, 78.62 3.77 C80.8 4.6, 82.94 5.56, 85.01 6.65 C87.07 7.73, 89.09 8.95, 91 10.27 C92.92 11.6, 94.78 13.05, 96.52 14.6 C98.27 16.14, 99.93 17.81, 101.48 19.55 C103.02 21.3, 104.47 23.15, 105.8 25.07 C107.12 26.99, 108.34 29, 109.42 31.07 C110.51 33.13, 111.47 35.28, 112.3 37.46 C113.13 39.64, 113.83 41.88, 114.39 44.15 C114.94 46.41, 115.37 48.73, 115.65 51.04 C115.93 53.36, 116.07 55.7, 116.07 58.04" stroke="#db995a" stroke-width="1" fill="none"></path></g><g stroke-linecap="round"><g transform="translate(50.33462239968685 73.2851819788093) rotate(0 10.090055320305055 2.4436852728863414)"><path d="M-0.43 -0.07 C1.1 0.49, 5.8 3.02, 9.33 3.86 C12.86 4.71, 18.96 4.77, 20.73 4.99 M0.34 -0.58 C1.82 0.3, 5.62 3.53, 9.01 4.57 C12.39 5.61, 18.84 5.71, 20.66 5.65" stroke="#ffffff" stroke-width="2" fill="none"></path></g></g><mask></mask><g stroke-linecap="round" transform="translate(54.83730047505742 42.62672811850166) rotate(0 1.3653920095075591 3.413480023768784)"><path d="M1.83 0.16 C2.15 0.29, 2.3 0.75, 2.46 1.31 C2.62 1.88, 2.77 2.85, 2.79 3.55 C2.8 4.25, 2.71 5.01, 2.55 5.5 C2.39 6, 2.19 6.38, 1.85 6.53 C1.5 6.68, 0.77 6.65, 0.48 6.37 C0.18 6.1, 0.16 5.54, 0.1 4.88 C0.04 4.22, 0.04 3.18, 0.1 2.41 C0.15 1.64, 0.16 0.67, 0.43 0.27 C0.71 -0.14, 1.56 0.02, 1.74 -0.02 C1.92 -0.07, 1.57 -0.05, 1.5 -0.01 M1.88 0.03 C2.19 0.02, 2.35 0.21, 2.56 0.79 C2.77 1.37, 3.08 2.8, 3.13 3.51 C3.17 4.21, 3.1 4.54, 2.84 5.01 C2.57 5.49, 1.88 6.14, 1.56 6.38 C1.24 6.61, 1.2 6.72, 0.91 6.42 C0.61 6.12, -0.12 5.17, -0.2 4.58 C-0.29 3.98, 0.24 3.44, 0.41 2.85 C0.58 2.27, 0.69 1.48, 0.79 1.05 C0.89 0.62, 0.95 0.42, 1 0.27 C1.06 0.11, 1.03 0.07, 1.14 0.12" stroke="none" stroke-width="0" fill="#ffffff"></path><path d="M1.22 0.18 C1.44 0.12, 1.95 0.32, 2.23 0.78 C2.5 1.24, 2.81 2.2, 2.86 2.95 C2.9 3.69, 2.64 4.67, 2.51 5.26 C2.37 5.85, 2.38 6.27, 2.07 6.48 C1.75 6.69, 0.91 6.78, 0.59 6.53 C0.28 6.28, 0.32 5.6, 0.19 4.98 C0.05 4.35, -0.3 3.47, -0.2 2.78 C-0.1 2.09, 0.5 1.32, 0.81 0.83 C1.12 0.35, 1.56 -0.01, 1.66 -0.13 C1.77 -0.24, 1.53 0.09, 1.44 0.13 M1.81 0.36 C2.1 0.39, 1.85 0.69, 2.01 1.18 C2.18 1.67, 2.75 2.54, 2.81 3.29 C2.87 4.05, 2.53 5.19, 2.36 5.71 C2.18 6.23, 1.96 6.22, 1.76 6.4 C1.56 6.58, 1.4 7.08, 1.15 6.78 C0.91 6.48, 0.4 5.25, 0.28 4.58 C0.17 3.92, 0.49 3.42, 0.47 2.79 C0.46 2.17, 0.07 1.28, 0.21 0.84 C0.35 0.4, 1.02 0.24, 1.32 0.13 C1.61 0.02, 2.02 0.08, 1.98 0.18" stroke="#ffffff" stroke-width="2" fill="none"></path></g><g stroke-linecap="round" transform="translate(70.53638498738655 46.04020773909997) rotate(0 1.8432792128351139 3.413479999999936)"><path d="M1.8 0.1 C2.24 -0.05, 2.73 0.24, 3.08 0.66 C3.43 1.08, 3.82 1.88, 3.89 2.6 C3.97 3.33, 3.77 4.41, 3.52 5.02 C3.28 5.62, 2.79 5.95, 2.42 6.24 C2.05 6.52, 1.64 6.85, 1.32 6.72 C1 6.58, 0.73 6.06, 0.52 5.43 C0.3 4.8, 0.09 3.66, 0.04 2.95 C0 2.24, 0 1.68, 0.27 1.17 C0.53 0.66, 1.42 0.11, 1.65 -0.11 C1.88 -0.33, 1.66 -0.28, 1.64 -0.17 M1.88 0.22 C2.22 0.19, 2.46 0.72, 2.81 1.22 C3.17 1.72, 3.98 2.59, 4.01 3.22 C4.05 3.85, 3.36 4.42, 3.04 5.01 C2.72 5.6, 2.43 6.56, 2.11 6.77 C1.79 6.98, 1.48 6.5, 1.13 6.28 C0.77 6.06, 0.12 6, -0.01 5.44 C-0.13 4.89, 0.21 3.84, 0.4 2.97 C0.58 2.11, 0.84 0.83, 1.13 0.28 C1.42 -0.28, 1.99 -0.35, 2.12 -0.36 C2.24 -0.36, 1.91 0.2, 1.9 0.25" stroke="none" stroke-width="0" fill="#ffffff"></path><path d="M2.33 0.03 C2.68 0.15, 2.97 0.79, 3.22 1.34 C3.46 1.89, 3.77 2.6, 3.8 3.34 C3.83 4.09, 3.69 5.3, 3.4 5.82 C3.1 6.34, 2.46 6.37, 2.04 6.47 C1.61 6.56, 1.19 6.74, 0.85 6.39 C0.51 6.04, 0.11 5.02, -0.02 4.39 C-0.15 3.76, -0.08 3.2, 0.08 2.59 C0.24 1.98, 0.62 1.16, 0.95 0.74 C1.28 0.32, 1.84 0.22, 2.06 0.07 C2.28 -0.08, 2.3 -0.26, 2.28 -0.16 M1.88 -0.31 C2.22 -0.5, 2.57 0.14, 2.86 0.56 C3.15 0.98, 3.45 1.5, 3.61 2.2 C3.76 2.89, 3.98 3.95, 3.78 4.72 C3.58 5.49, 2.72 6.44, 2.4 6.81 C2.07 7.18, 2.2 7.09, 1.84 6.95 C1.49 6.81, 0.52 6.65, 0.29 5.99 C0.05 5.32, 0.33 3.78, 0.41 2.95 C0.49 2.11, 0.55 1.37, 0.75 0.96 C0.96 0.55, 1.5 0.7, 1.65 0.48 C1.79 0.26, 1.59 -0.38, 1.63 -0.35" stroke="#ffffff" stroke-width="2" fill="none"></path></g><g stroke-linecap="round"><g transform="translate(37.98346962495816 26.081571925314847) rotate(10.50301885808814 35.52830737151271 -0.9191771128552091)" fill-rule="evenodd"><path d="M0.22 0.19 C0.22 0.19, 0.22 0.19, 0.22 0.19 M0.22 0.19 C0.22 0.19, 0.22 0.19, 0.22 0.19 M-6.98 10.05 C-4.08 8.07, 3.85 3, 7.41 -7.27 M-5.09 14.6 C-1.78 7.43, 1.4 3.84, 9.33 -6.86 M-2.86 10.3 C4.49 3.7, 13.15 2.68, 17.82 -14.93 M-0.77 13.35 C8.51 1.86, 16.17 -4.27, 21.4 -11.13 M8.29 13.3 C11.22 3.08, 22.46 -5.22, 23.08 -9.76 M6.71 13.67 C10.42 5.19, 15.26 1, 25.55 -10.57 M8.25 9.93 C18.85 1.83, 25.15 -2.2, 34.89 -8.32 M12.81 12.74 C16.67 4.96, 25.31 -1.31, 30.19 -12.75 M16.9 8.63 C21.89 9.96, 29.76 -1.87, 42.03 -13.97 M17.69 11.68 C24.57 2.51, 30.04 -1.68, 38.05 -13.32 M24.16 13.54 C28.79 4.69, 35.4 -0.89, 44.21 -12.98 M21.29 9.49 C26.47 6.23, 33.12 -1.97, 45.25 -14.33 M29.82 6.57 C37.45 3.82, 42.67 -4.77, 50.54 -15.48 M28.39 10.98 C35.93 0.86, 43.11 -5.11, 46.94 -13.36 M31.43 13.56 C37.43 6.16, 45.79 2.2, 48.76 -10.8 M35.67 8.72 C40.38 2.94, 46.12 -5.42, 51.72 -13.04 M40.2 6.42 C45.92 1.73, 50.46 -4.04, 53.78 -9.58 M40.77 10.97 C45.07 7.23, 47.57 1.57, 57.4 -11.36 M44.83 9.22 C51.2 3.19, 54.9 4.49, 60.92 -7.17 M45.37 7.65 C51.17 2.12, 56.17 -3.42, 61.38 -7.26 M51.4 8.33 C57.5 3.3, 60.79 -6.17, 65.75 -5.49 M52.21 10.19 C53.94 2.97, 57.31 2.29, 63.69 -6.64 M54.63 11.3 C57.79 2.53, 62.71 0.68, 71.33 -6.15 M55.54 10.34 C60.35 5.45, 62.67 -0.55, 67.45 -5.74 M63.67 9.65 C66.1 6.13, 68.78 2.8, 69.44 -1.48 M61.04 8.91 C65.06 7.26, 65.58 3.07, 70.8 -2.08 M66.35 9.7 C68.13 7.3, 72.49 2.51, 72.4 0 M67.57 7.48 C69.89 6.2, 72.17 3.59, 73.3 0.41 M73.78 7.8 C73.1 6.92, 74.08 5.57, 75.51 4.07 M73.3 8.04 C74.31 6.47, 76.16 4.97, 76 4.5" stroke="#ffffff" stroke-width="0.5" fill="none"></path><path d="M3.09 1.16 C-3.04 5.41, -4.23 6.99, -6.24 13.03 M-0.26 -0.62 C-2.16 4.05, -4.62 6.41, -7.56 13.37 M-7.3 12.77 C-0.34 9.04, 17.14 6.82, 28.33 11.55 M-7.13 12.16 C4.8 11.88, 18.11 8.67, 28.54 10.84 M30.14 6.07 C46.7 6.02, 62.41 10.57, 79.13 3.52 M28.46 8.31 C44.23 9.78, 65.28 7.78, 79.68 7.57 M80.47 4.95 C72.07 1.16, 70.98 -1.83, 69.13 -6.55 M78.14 6.6 C75.68 2.64, 73.22 1.53, 68.9 -6.96 M66.9 -3.76 C62.48 -6.47, 47.45 -13.14, 41.79 -12.83 M70.21 -5.5 C62.69 -7.36, 52.97 -10.17, 43.1 -13.78 M42.45 -16.55 C40 -15.44, 30.69 -9.44, 17.11 -12.48 M43.59 -12.38 C34.24 -13.59, 24.44 -10.94, 18.71 -12.76 M17.34 -12.97 C16.09 -8.46, 9.92 -7.11, 0.89 -0.42 M21.1 -12.13 C13.05 -5.31, 5.93 -0.87, 2.39 -0.85 M0.36 0.02 C0.43 0.02, 0.4 0.14, 0.44 0.49 M0.51 -0.02 C0.47 0.12, 0.4 0.36, 0.3 0.67" stroke="transparent" stroke-width="1" fill="none"></path></g></g><mask></mask></svg>