<svg version="1.1" xmlns="http://www.w3.org/2000/svg" viewBox="0 0 136.07211199999983 137.96228476792805" width="136.07211199999983" height="137.96228476792805">
  <!-- svg-source:excalidraw -->
  
  <defs>
    <style class="style-fonts">
      
    </style>
    
  </defs>
  <g stroke-linecap="round" transform="translate(10 11.890172767928107) rotate(0 58.03605599999992 58.036055999999974)"><path d="M116.07 58.04 C116.07 60.37, 115.93 62.72, 115.65 65.03 C115.37 67.35, 114.94 69.66, 114.39 71.92 C113.83 74.19, 113.13 76.44, 112.3 78.62 C111.47 80.8, 110.51 82.94, 109.42 85.01 C108.34 87.07, 107.12 89.09, 105.8 91 C104.47 92.92, 103.02 94.78, 101.48 96.52 C99.93 98.27, 98.27 99.93, 96.52 101.48 C94.78 103.02, 92.92 104.47, 91 105.8 C89.09 107.12, 87.07 108.34, 85.01 109.42 C82.94 110.51, 80.8 111.47, 78.62 112.3 C76.44 113.13, 74.19 113.83, 71.92 114.39 C69.66 114.94, 67.35 115.37, 65.03 115.65 C62.72 115.93, 60.37 116.07, 58.04 116.07 C55.7 116.07, 53.36 115.93, 51.04 115.65 C48.73 115.37, 46.41 114.94, 44.15 114.39 C41.88 113.83, 39.64 113.13, 37.46 112.3 C35.28 111.47, 33.13 110.51, 31.07 109.42 C29 108.34, 26.99 107.12, 25.07 105.8 C23.15 104.47, 21.3 103.02, 19.55 101.48 C17.81 99.93, 16.14 98.27, 14.6 96.52 C13.05 94.78, 11.6 92.92, 10.27 91 C8.95 89.09, 7.73 87.07, 6.65 85.01 C5.56 82.94, 4.6 80.8, 3.77 78.62 C2.94 76.44, 2.24 74.19, 1.69 71.92 C1.13 69.66, 0.7 67.35, 0.42 65.03 C0.14 62.72, 0 60.37, 0 58.04 C0 55.7, 0.14 53.36, 0.42 51.04 C0.7 48.73, 1.13 46.41, 1.69 44.15 C2.24 41.88, 2.94 39.64, 3.77 37.46 C4.6 35.28, 5.56 33.13, 6.65 31.07 C7.73 29, 8.95 26.99, 10.27 25.07 C11.6 23.15, 13.05 21.3, 14.6 19.55 C16.14 17.81, 17.81 16.14, 19.55 14.6 C21.3 13.05, 23.15 11.6, 25.07 10.27 C26.99 8.95, 29 7.73, 31.07 6.65 C33.13 5.56, 35.28 4.6, 37.46 3.77 C39.64 2.94, 41.88 2.24, 44.15 1.69 C46.41 1.13, 48.73 0.7, 51.04 0.42 C53.36 0.14, 55.7 0, 58.04 0 C60.37 0, 62.72 0.14, 65.03 0.42 C67.35 0.7, 69.66 1.13, 71.92 1.69 C74.19 2.24, 76.44 2.94, 78.62 3.77 C80.8 4.6, 82.94 5.56, 85.01 6.65 C87.07 7.73, 89.09 8.95, 91 10.27 C92.92 11.6, 94.78 13.05, 96.52 14.6 C98.27 16.14, 99.93 17.81, 101.48 19.55 C103.02 21.3, 104.47 23.15, 105.8 25.07 C107.12 26.99, 108.34 29, 109.42 31.07 C110.51 33.13, 111.47 35.28, 112.3 37.46 C113.13 39.64, 113.83 41.88, 114.39 44.15 C114.94 46.41, 115.37 48.73, 115.65 51.04 C115.93 53.36, 116.07 55.7, 116.07 58.04" stroke="none" stroke-width="0" fill="#776885"></path><path d="M116.07 58.04 C116.07 60.37, 115.93 62.72, 115.65 65.03 C115.37 67.35, 114.94 69.66, 114.39 71.92 C113.83 74.19, 113.13 76.44, 112.3 78.62 C111.47 80.8, 110.51 82.94, 109.42 85.01 C108.34 87.07, 107.12 89.09, 105.8 91 C104.47 92.92, 103.02 94.78, 101.48 96.52 C99.93 98.27, 98.27 99.93, 96.52 101.48 C94.78 103.02, 92.92 104.47, 91 105.8 C89.09 107.12, 87.07 108.34, 85.01 109.42 C82.94 110.51, 80.8 111.47, 78.62 112.3 C76.44 113.13, 74.19 113.83, 71.92 114.39 C69.66 114.94, 67.35 115.37, 65.03 115.65 C62.72 115.93, 60.37 116.07, 58.04 116.07 C55.7 116.07, 53.36 115.93, 51.04 115.65 C48.73 115.37, 46.41 114.94, 44.15 114.39 C41.88 113.83, 39.64 113.13, 37.46 112.3 C35.28 111.47, 33.13 110.51, 31.07 109.42 C29 108.34, 26.99 107.12, 25.07 105.8 C23.15 104.47, 21.3 103.02, 19.55 101.48 C17.81 99.93, 16.14 98.27, 14.6 96.52 C13.05 94.78, 11.6 92.92, 10.27 91 C8.95 89.09, 7.73 87.07, 6.65 85.01 C5.56 82.94, 4.6 80.8, 3.77 78.62 C2.94 76.44, 2.24 74.19, 1.69 71.92 C1.13 69.66, 0.7 67.35, 0.42 65.03 C0.14 62.72, 0 60.37, 0 58.04 C0 55.7, 0.14 53.36, 0.42 51.04 C0.7 48.73, 1.13 46.41, 1.69 44.15 C2.24 41.88, 2.94 39.64, 3.77 37.46 C4.6 35.28, 5.56 33.13, 6.65 31.07 C7.73 29, 8.95 26.99, 10.27 25.07 C11.6 23.15, 13.05 21.3, 14.6 19.55 C16.14 17.81, 17.81 16.14, 19.55 14.6 C21.3 13.05, 23.15 11.6, 25.07 10.27 C26.99 8.95, 29 7.73, 31.07 6.65 C33.13 5.56, 35.28 4.6, 37.46 3.77 C39.64 2.94, 41.88 2.24, 44.15 1.69 C46.41 1.13, 48.73 0.7, 51.04 0.42 C53.36 0.14, 55.7 0, 58.04 0 C60.37 0, 62.72 0.14, 65.03 0.42 C67.35 0.7, 69.66 1.13, 71.92 1.69 C74.19 2.24, 76.44 2.94, 78.62 3.77 C80.8 4.6, 82.94 5.56, 85.01 6.65 C87.07 7.73, 89.09 8.95, 91 10.27 C92.92 11.6, 94.78 13.05, 96.52 14.6 C98.27 16.14, 99.93 17.81, 101.48 19.55 C103.02 21.3, 104.47 23.15, 105.8 25.07 C107.12 26.99, 108.34 29, 109.42 31.07 C110.51 33.13, 111.47 35.28, 112.3 37.46 C113.13 39.64, 113.83 41.88, 114.39 44.15 C114.94 46.41, 115.37 48.73, 115.65 51.04 C115.93 53.36, 116.07 55.7, 116.07 58.04" stroke="#776885" stroke-width="1" fill="none"></path></g><g stroke-linecap="round"><g transform="translate(50.33462239968685 73.12340300763731) rotate(0 10.090055320305055 2.4436852728863414)"><path d="M-0.48 -0.07 C1.08 0.64, 5.51 3.14, 9.02 3.94 C12.53 4.74, 18.7 4.52, 20.57 4.74 M0.27 -0.57 C1.79 -0.02, 5.18 2.05, 8.53 3.02 C11.89 4, 18.45 5.05, 20.42 5.26" stroke="#ffffff" stroke-width="2" fill="none"></path></g></g><mask></mask><g stroke-linecap="round" transform="translate(54.83730047505742 42.464949147329776) rotate(0 1.3653920095071044 3.413480023768784)"><path d="M1.44 0.27 C1.71 0.2, 1.61 0.41, 1.86 0.84 C2.1 1.26, 2.75 2.13, 2.91 2.81 C3.06 3.48, 2.94 4.22, 2.8 4.89 C2.66 5.56, 2.32 6.48, 2.07 6.82 C1.82 7.16, 1.56 7.2, 1.3 6.92 C1.04 6.63, 0.71 5.7, 0.49 5.11 C0.26 4.52, -0.02 4.1, -0.04 3.38 C-0.06 2.67, 0.17 1.36, 0.34 0.8 C0.52 0.25, 0.85 0.22, 1.01 0.06 C1.18 -0.1, 1.32 -0.19, 1.33 -0.16 M0.91 -0.17 C1.15 -0.32, 1.68 0.29, 1.96 0.75 C2.24 1.22, 2.52 2.02, 2.57 2.62 C2.63 3.22, 2.41 3.79, 2.31 4.37 C2.2 4.95, 2.07 5.61, 1.93 6.08 C1.79 6.55, 1.69 7.36, 1.48 7.19 C1.27 7.02, 0.96 5.63, 0.66 5.05 C0.36 4.47, -0.32 4.41, -0.33 3.7 C-0.34 3, 0.31 1.46, 0.6 0.82 C0.89 0.18, 1.24 -0.07, 1.42 -0.13 C1.59 -0.19, 1.77 0.43, 1.67 0.44" stroke="none" stroke-width="0" fill="#ffffff"></path><path d="M1.44 0.22 C1.72 0.25, 2.31 0.68, 2.54 1.12 C2.77 1.55, 2.8 2.13, 2.83 2.82 C2.86 3.51, 2.89 4.62, 2.72 5.24 C2.54 5.85, 2.03 6.29, 1.77 6.5 C1.52 6.72, 1.42 6.72, 1.18 6.52 C0.95 6.32, 0.58 5.95, 0.37 5.31 C0.16 4.67, -0.05 3.47, -0.06 2.69 C-0.07 1.9, 0.05 1.1, 0.33 0.62 C0.6 0.13, 1.41 -0.18, 1.58 -0.24 C1.75 -0.3, 1.4 0.11, 1.35 0.26 M1.72 -0.31 C1.97 -0.44, 1.68 0.18, 1.88 0.7 C2.08 1.22, 2.86 2.01, 2.92 2.82 C2.99 3.62, 2.38 4.85, 2.27 5.5 C2.16 6.16, 2.45 6.62, 2.26 6.75 C2.08 6.88, 1.45 6.56, 1.17 6.29 C0.89 6.02, 0.73 5.64, 0.58 5.14 C0.42 4.64, 0.25 4.05, 0.23 3.29 C0.2 2.53, 0.29 1.14, 0.42 0.57 C0.55 0, 0.89 -0.05, 1.02 -0.13 C1.15 -0.2, 1.08 0.09, 1.22 0.13" stroke="#ffffff" stroke-width="2" fill="none"></path></g><g stroke-linecap="round" transform="translate(70.53638498738565 45.87842876792797) rotate(0 1.8432792128351139 3.4134799999999927)"><path d="M1.85 -0.27 C2.25 -0.41, 2.68 0.26, 3.01 0.74 C3.34 1.21, 3.74 1.89, 3.83 2.57 C3.92 3.25, 3.68 4.14, 3.55 4.84 C3.41 5.53, 3.31 6.37, 3 6.73 C2.69 7.09, 2.15 7.21, 1.67 7 C1.2 6.79, 0.39 6.1, 0.17 5.47 C-0.06 4.84, 0.29 3.99, 0.31 3.22 C0.34 2.45, 0.08 1.38, 0.31 0.85 C0.53 0.32, 1.48 0.21, 1.67 0.04 C1.85 -0.12, 1.44 -0.14, 1.41 -0.12 M1.68 -0.16 C2.02 -0.16, 2.88 0.28, 3.24 0.73 C3.6 1.18, 3.88 1.83, 3.85 2.56 C3.81 3.29, 3.33 4.36, 3.03 5.11 C2.73 5.87, 2.3 6.76, 2.07 7.07 C1.84 7.38, 2.02 7.38, 1.64 6.99 C1.27 6.61, 0.02 5.41, -0.17 4.75 C-0.36 4.08, 0.42 3.63, 0.52 3 C0.62 2.37, 0.22 1.4, 0.42 0.98 C0.62 0.55, 1.42 0.68, 1.72 0.46 C2.01 0.24, 2.26 -0.24, 2.22 -0.33" stroke="none" stroke-width="0" fill="#ffffff"></path><path d="M2.28 0.29 C2.71 0.34, 3.22 0.67, 3.44 1.19 C3.66 1.71, 3.61 2.7, 3.59 3.41 C3.58 4.12, 3.6 4.83, 3.36 5.43 C3.11 6.04, 2.52 6.85, 2.12 7.06 C1.72 7.26, 1.23 7.06, 0.95 6.67 C0.67 6.27, 0.57 5.41, 0.42 4.67 C0.27 3.94, -0.01 2.9, 0.03 2.24 C0.08 1.58, 0.41 1.1, 0.71 0.71 C1.01 0.33, 1.58 0.06, 1.85 -0.07 C2.12 -0.2, 2.22 -0.14, 2.31 -0.07 M1.41 -0.36 C1.69 -0.47, 2.45 0.42, 2.81 0.87 C3.18 1.32, 3.43 1.58, 3.61 2.33 C3.78 3.07, 4.01 4.61, 3.86 5.36 C3.71 6.11, 3.18 6.53, 2.71 6.82 C2.23 7.1, 1.4 7.31, 1.01 7.09 C0.62 6.87, 0.44 6.2, 0.35 5.52 C0.27 4.83, 0.5 3.79, 0.5 2.97 C0.5 2.15, 0.17 1.12, 0.36 0.6 C0.54 0.08, 1.35 -0.14, 1.59 -0.15 C1.83 -0.15, 1.8 0.39, 1.79 0.55" stroke="#ffffff" stroke-width="2" fill="none"></path></g><g stroke-linecap="round"><g transform="translate(37.98346962495816 25.919792954142963) rotate(10.50301885808814 35.52830737151271 -0.9191771128553228)" fill-rule="evenodd"><path d="M0.22 0.19 C0.22 0.19, 0.22 0.19, 0.22 0.19 M0.22 0.19 C0.22 0.19, 0.22 0.19, 0.22 0.19 M-9.17 16.24 C5.15 6.39, 5.5 2.59, 9.85 -8.69 M-3.56 10.92 C-0.76 8.12, 5.79 -0.08, 11.87 -6.92 M0.84 13.02 C5.54 1.54, 11.65 -0.24, 19.3 -8.8 M1.44 10.65 C4.8 5.28, 10.2 -1.77, 19.31 -10.44 M3.91 10.98 C11.49 5.1, 20.19 -3.4, 25.23 -12.4 M5.65 10.97 C13.23 2.71, 21.4 -7.02, 26.89 -9.58 M10.74 9.93 C19.41 1.82, 24.03 -9.65, 35.03 -13.84 M13.38 10.26 C15.8 5.6, 20.58 1.38, 30.49 -11.3 M14.88 14.54 C22.66 8.33, 25 0.66, 41.92 -15.04 M19.26 11.23 C25.41 0.69, 35.59 -6.51, 37.94 -14.29 M20.7 12.35 C31.71 -1.2, 40.59 -9.37, 42.77 -13.59 M23.34 10.83 C29.01 4.23, 32.86 -0.99, 44.07 -15.28 M27.15 12 C36.86 5.34, 45.41 -7.9, 44.63 -11.67 M28.11 12.22 C31.87 5.61, 37.97 -0.27, 48.4 -14.1 M31.74 13.26 C35.5 1.94, 45.37 3.92, 49.91 -11.4 M33.61 10.7 C38.47 2.14, 43.37 -1.88, 53.49 -11.32 M38.32 13.24 C39.85 3.37, 46.03 1.48, 56.97 -8.98 M38.44 9.61 C47.86 1.96, 53.2 -6.91, 56.74 -10.45 M45.05 8.45 C51.56 4.15, 53.22 -3.58, 61.29 -6.07 M46.87 10.31 C51.12 3.96, 54.49 -0.65, 60.78 -7.59 M52.18 8.96 C57.03 3.45, 64.31 -7.61, 67.39 -7.65 M49.88 8.12 C53.02 3.69, 57.77 -0.08, 64.5 -9.43 M57.36 9.27 C59.47 2.79, 65.49 1.28, 71.98 -7.11 M55.57 10.96 C58.33 7.45, 61.44 0.44, 67.48 -4.62 M58.98 7.73 C62.29 6.56, 65.24 1.43, 69.33 -1.4 M61.07 8.41 C63.25 5.67, 65.12 4, 70.16 -2.57 M67.48 9.94 C69.59 6.13, 71.58 1.72, 73.61 -0.11 M66.97 9.01 C70.08 5.71, 71.27 2.62, 74.25 0.55 M72.14 8.75 C74.6 6.74, 74.05 4.92, 76.58 4.06 M73.06 8.31 C73.59 6.47, 74.73 5.95, 76.41 3.65" stroke="#ffffff" stroke-width="0.5" fill="none"></path><path d="M2.85 2.31 C-0.22 4.55, -2.6 3.92, -7.68 13.73 M-0.18 1 C-2.34 3.47, -3.29 6.29, -7.17 12.09 M-10.64 12.2 C-3.69 14.19, 3.12 7.45, 25.44 6.67 M-7.43 12.71 C3.1 10.74, 18.79 10.28, 28.62 7.99 M23.13 10.69 C42.06 7.81, 58.27 11.29, 77.01 11.03 M28.06 8.63 C39.99 10.37, 49.66 7.81, 79.64 5.64 M79.28 4.42 C78.05 -0.75, 73.71 -0.89, 68.66 -3.89 M78.57 6.48 C75.62 2.31, 73.61 0.13, 69.14 -5.43 M69.61 -5.1 C56.36 -12.74, 47.74 -9.56, 46.03 -17.26 M69.73 -6.48 C63.42 -7.36, 55.36 -10.05, 44.61 -15.04 M48.17 -14.42 C36.03 -14.23, 32.96 -10.3, 19.08 -13.13 M45.68 -13.11 C36.37 -11.99, 29.89 -11.72, 19.21 -11.72 M20.69 -10.73 C12.73 -10.23, 5.41 -6.48, 2.45 -2.79 M19.18 -12.42 C17.4 -10.57, 10.1 -5.8, 0.85 1.56 M0.45 0.03 C0.29 0.17, 0.35 0.33, 0.41 0.72 M0.43 -0.12 C0.34 0.12, 0.34 0.24, 0.34 0.6" stroke="transparent" stroke-width="1" fill="none"></path></g></g><mask></mask></svg>