<svg version="1.1" xmlns="http://www.w3.org/2000/svg" viewBox="0 0 136.07211199999983 140.14615213770253" width="136.07211199999983" height="140.14615213770253">
  <!-- svg-source:excalidraw -->
  
  <defs>
    <style class="style-fonts">
      
    </style>
    
  </defs>
  <g stroke-linecap="round" transform="translate(10 14.074040137702468) rotate(0 58.03605599999992 58.03605600000003)"><path d="M116.07 58.04 C116.07 60.37, 115.93 62.72, 115.65 65.03 C115.37 67.35, 114.94 69.66, 114.39 71.92 C113.83 74.19, 113.13 76.44, 112.3 78.62 C111.47 80.8, 110.51 82.94, 109.42 85.01 C108.34 87.07, 107.12 89.09, 105.8 91 C104.47 92.92, 103.02 94.78, 101.48 96.52 C99.93 98.27, 98.27 99.93, 96.52 101.48 C94.78 103.02, 92.92 104.47, 91 105.8 C89.09 107.12, 87.07 108.34, 85.01 109.42 C82.94 110.51, 80.8 111.47, 78.62 112.3 C76.44 113.13, 74.19 113.83, 71.92 114.39 C69.66 114.94, 67.35 115.37, 65.03 115.65 C62.72 115.93, 60.37 116.07, 58.04 116.07 C55.7 116.07, 53.36 115.93, 51.04 115.65 C48.73 115.37, 46.41 114.94, 44.15 114.39 C41.88 113.83, 39.64 113.13, 37.46 112.3 C35.28 111.47, 33.13 110.51, 31.07 109.42 C29 108.34, 26.99 107.12, 25.07 105.8 C23.15 104.47, 21.3 103.02, 19.55 101.48 C17.81 99.93, 16.14 98.27, 14.6 96.52 C13.05 94.78, 11.6 92.92, 10.27 91 C8.95 89.09, 7.73 87.07, 6.65 85.01 C5.56 82.94, 4.6 80.8, 3.77 78.62 C2.94 76.44, 2.24 74.19, 1.69 71.92 C1.13 69.66, 0.7 67.35, 0.42 65.03 C0.14 62.72, 0 60.37, 0 58.04 C0 55.7, 0.14 53.36, 0.42 51.04 C0.7 48.73, 1.13 46.41, 1.69 44.15 C2.24 41.88, 2.94 39.64, 3.77 37.46 C4.6 35.28, 5.56 33.13, 6.65 31.07 C7.73 29, 8.95 26.99, 10.27 25.07 C11.6 23.15, 13.05 21.3, 14.6 19.55 C16.14 17.81, 17.81 16.14, 19.55 14.6 C21.3 13.05, 23.15 11.6, 25.07 10.27 C26.99 8.95, 29 7.73, 31.07 6.65 C33.13 5.56, 35.28 4.6, 37.46 3.77 C39.64 2.94, 41.88 2.24, 44.15 1.69 C46.41 1.13, 48.73 0.7, 51.04 0.42 C53.36 0.14, 55.7 0, 58.04 0 C60.37 0, 62.72 0.14, 65.03 0.42 C67.35 0.7, 69.66 1.13, 71.92 1.69 C74.19 2.24, 76.44 2.94, 78.62 3.77 C80.8 4.6, 82.94 5.56, 85.01 6.65 C87.07 7.73, 89.09 8.95, 91 10.27 C92.92 11.6, 94.78 13.05, 96.52 14.6 C98.27 16.14, 99.93 17.81, 101.48 19.55 C103.02 21.3, 104.47 23.15, 105.8 25.07 C107.12 26.99, 108.34 29, 109.42 31.07 C110.51 33.13, 111.47 35.28, 112.3 37.46 C113.13 39.64, 113.83 41.88, 114.39 44.15 C114.94 46.41, 115.37 48.73, 115.65 51.04 C115.93 53.36, 116.07 55.7, 116.07 58.04" stroke="none" stroke-width="0" fill="#89bd9e"></path><path d="M116.07 58.04 C116.07 60.37, 115.93 62.72, 115.65 65.03 C115.37 67.35, 114.94 69.66, 114.39 71.92 C113.83 74.19, 113.13 76.44, 112.3 78.62 C111.47 80.8, 110.51 82.94, 109.42 85.01 C108.34 87.07, 107.12 89.09, 105.8 91 C104.47 92.92, 103.02 94.78, 101.48 96.52 C99.93 98.27, 98.27 99.93, 96.52 101.48 C94.78 103.02, 92.92 104.47, 91 105.8 C89.09 107.12, 87.07 108.34, 85.01 109.42 C82.94 110.51, 80.8 111.47, 78.62 112.3 C76.44 113.13, 74.19 113.83, 71.92 114.39 C69.66 114.94, 67.35 115.37, 65.03 115.65 C62.72 115.93, 60.37 116.07, 58.04 116.07 C55.7 116.07, 53.36 115.93, 51.04 115.65 C48.73 115.37, 46.41 114.94, 44.15 114.39 C41.88 113.83, 39.64 113.13, 37.46 112.3 C35.28 111.47, 33.13 110.51, 31.07 109.42 C29 108.34, 26.99 107.12, 25.07 105.8 C23.15 104.47, 21.3 103.02, 19.55 101.48 C17.81 99.93, 16.14 98.27, 14.6 96.52 C13.05 94.78, 11.6 92.92, 10.27 91 C8.95 89.09, 7.73 87.07, 6.65 85.01 C5.56 82.94, 4.6 80.8, 3.77 78.62 C2.94 76.44, 2.24 74.19, 1.69 71.92 C1.13 69.66, 0.7 67.35, 0.42 65.03 C0.14 62.72, 0 60.37, 0 58.04 C0 55.7, 0.14 53.36, 0.42 51.04 C0.7 48.73, 1.13 46.41, 1.69 44.15 C2.24 41.88, 2.94 39.64, 3.77 37.46 C4.6 35.28, 5.56 33.13, 6.65 31.07 C7.73 29, 8.95 26.99, 10.27 25.07 C11.6 23.15, 13.05 21.3, 14.6 19.55 C16.14 17.81, 17.81 16.14, 19.55 14.6 C21.3 13.05, 23.15 11.6, 25.07 10.27 C26.99 8.95, 29 7.73, 31.07 6.65 C33.13 5.56, 35.28 4.6, 37.46 3.77 C39.64 2.94, 41.88 2.24, 44.15 1.69 C46.41 1.13, 48.73 0.7, 51.04 0.42 C53.36 0.14, 55.7 0, 58.04 0 C60.37 0, 62.72 0.14, 65.03 0.42 C67.35 0.7, 69.66 1.13, 71.92 1.69 C74.19 2.24, 76.44 2.94, 78.62 3.77 C80.8 4.6, 82.94 5.56, 85.01 6.65 C87.07 7.73, 89.09 8.95, 91 10.27 C92.92 11.6, 94.78 13.05, 96.52 14.6 C98.27 16.14, 99.93 17.81, 101.48 19.55 C103.02 21.3, 104.47 23.15, 105.8 25.07 C107.12 26.99, 108.34 29, 109.42 31.07 C110.51 33.13, 111.47 35.28, 112.3 37.46 C113.13 39.64, 113.83 41.88, 114.39 44.15 C114.94 46.41, 115.37 48.73, 115.65 51.04 C115.93 53.36, 116.07 55.7, 116.07 58.04" stroke="#88bd9f" stroke-width="1" fill="none"></path></g><g stroke-linecap="round"><g transform="translate(50.33462239968685 75.30727037741167) rotate(0 10.090055320305055 2.4436852728863414)"><path d="M-0.13 0.35 C1.4 0.99, 6.11 3.25, 9.44 3.94 C12.78 4.63, 18.18 4.29, 19.9 4.47 M0.81 0.05 C2.26 0.79, 6.08 3.89, 9.18 4.69 C12.28 5.49, 17.66 4.7, 19.4 4.85" stroke="#ffffff" stroke-width="2" fill="none"></path></g></g><mask></mask><g stroke-linecap="round" transform="translate(54.83730047505742 44.64881651710414) rotate(0 1.3653920095071044 3.413480023768784)"><path d="M1.04 -0.11 C1.32 -0.19, 2.07 0.04, 2.31 0.5 C2.56 0.96, 2.47 1.89, 2.51 2.64 C2.56 3.39, 2.63 4.38, 2.58 5.01 C2.53 5.65, 2.43 6.22, 2.2 6.47 C1.98 6.73, 1.59 6.71, 1.22 6.53 C0.84 6.36, 0.18 6.04, -0.05 5.42 C-0.29 4.79, -0.25 3.5, -0.19 2.78 C-0.14 2.06, -0.04 1.59, 0.25 1.1 C0.55 0.62, 1.43 0.02, 1.59 -0.14 C1.75 -0.3, 1.31 0.12, 1.23 0.16 M1.37 0.1 C1.65 0.01, 2.33 0.04, 2.52 0.43 C2.71 0.82, 2.46 1.75, 2.52 2.44 C2.59 3.13, 3.08 3.97, 2.93 4.58 C2.77 5.2, 1.88 5.74, 1.61 6.12 C1.34 6.5, 1.49 7.01, 1.3 6.86 C1.12 6.7, 0.75 5.77, 0.5 5.18 C0.25 4.59, -0.24 4.06, -0.19 3.3 C-0.14 2.55, 0.51 1.27, 0.79 0.65 C1.07 0.02, 1.35 -0.33, 1.51 -0.45 C1.66 -0.57, 1.86 -0.16, 1.75 -0.09" stroke="none" stroke-width="0" fill="#ffffff"></path><path d="M1.13 0.08 C1.39 0.08, 1.79 0.2, 1.99 0.7 C2.2 1.2, 2.25 2.35, 2.39 3.08 C2.52 3.81, 2.86 4.51, 2.8 5.1 C2.73 5.69, 2.27 6.37, 1.98 6.64 C1.7 6.91, 1.43 7.01, 1.08 6.72 C0.72 6.43, 0.03 5.59, -0.13 4.9 C-0.29 4.22, 0.01 3.35, 0.11 2.61 C0.2 1.88, 0.25 0.95, 0.44 0.51 C0.63 0.08, 1.07 0.14, 1.26 0.01 C1.46 -0.11, 1.62 -0.27, 1.62 -0.24 M1.81 -0.41 C2.1 -0.27, 2.19 0.94, 2.26 1.54 C2.34 2.15, 2.27 2.53, 2.25 3.2 C2.24 3.87, 2.3 4.94, 2.15 5.55 C2 6.17, 1.58 6.73, 1.35 6.87 C1.12 7.01, 1.04 6.65, 0.77 6.38 C0.5 6.1, -0.2 5.84, -0.28 5.23 C-0.36 4.61, 0.03 3.48, 0.26 2.67 C0.49 1.85, 0.96 0.79, 1.09 0.35 C1.23 -0.08, 1 0.12, 1.09 0.05 C1.18 -0.02, 1.6 -0.18, 1.65 -0.05" stroke="#ffffff" stroke-width="2" fill="none"></path></g><g stroke-linecap="round" transform="translate(70.53638498738565 48.06229613770233) rotate(0 1.8432792128351139 3.4134799999999927)"><path d="M1.83 0.12 C2.19 0.12, 2.59 0.25, 2.89 0.73 C3.19 1.21, 3.54 2.19, 3.62 3 C3.71 3.81, 3.62 4.93, 3.4 5.59 C3.18 6.25, 2.69 6.83, 2.28 6.94 C1.88 7.06, 1.31 6.66, 0.99 6.29 C0.67 5.93, 0.57 5.4, 0.38 4.76 C0.2 4.12, -0.22 3.09, -0.12 2.45 C-0.03 1.82, 0.63 1.38, 0.95 0.95 C1.28 0.52, 1.64 0.07, 1.83 -0.11 C2.02 -0.3, 2.1 -0.21, 2.08 -0.15 M2.11 0.35 C2.48 0.33, 2.67 0.32, 2.9 0.84 C3.13 1.36, 3.47 2.77, 3.48 3.48 C3.49 4.19, 3.24 4.5, 2.97 5.09 C2.7 5.69, 2.17 6.77, 1.88 7.05 C1.59 7.33, 1.53 7.18, 1.23 6.78 C0.93 6.38, 0.22 5.29, 0.07 4.64 C-0.07 3.99, 0.29 3.51, 0.37 2.87 C0.44 2.23, 0.32 1.22, 0.52 0.82 C0.72 0.42, 1.34 0.67, 1.56 0.47 C1.78 0.27, 1.84 -0.42, 1.85 -0.39" stroke="none" stroke-width="0" fill="#ffffff"></path><path d="M1.77 -0.26 C2.16 -0.38, 2.41 -0.22, 2.75 0.29 C3.09 0.8, 3.68 2.01, 3.79 2.8 C3.9 3.59, 3.61 4.39, 3.42 5.05 C3.22 5.7, 2.93 6.49, 2.61 6.72 C2.29 6.95, 1.9 6.63, 1.49 6.42 C1.09 6.2, 0.46 6.01, 0.19 5.45 C-0.07 4.88, -0.13 3.81, -0.11 3.04 C-0.09 2.27, 0 1.3, 0.31 0.82 C0.62 0.34, 1.55 0.3, 1.74 0.14 C1.93 -0.01, 1.48 -0.18, 1.46 -0.1 M1.29 -0.09 C1.76 -0.3, 3.02 -0.21, 3.41 0.19 C3.79 0.58, 3.58 1.56, 3.62 2.29 C3.65 3.03, 3.74 3.88, 3.6 4.59 C3.45 5.3, 3.11 6.27, 2.72 6.55 C2.33 6.84, 1.57 6.47, 1.24 6.3 C0.92 6.13, 0.94 5.98, 0.77 5.51 C0.61 5.05, 0.31 4.35, 0.24 3.52 C0.18 2.68, 0.11 1.08, 0.36 0.51 C0.61 -0.05, 1.55 0.23, 1.75 0.13 C1.95 0.04, 1.51 -0.03, 1.58 -0.05" stroke="#ffffff" stroke-width="2" fill="none"></path></g><g stroke-linecap="round"><g transform="translate(37.98346962495816 28.103660323917325) rotate(10.50301885808814 35.52830737151271 -0.9191771128553228)" fill-rule="evenodd"><path d="M0.22 0.19 C0.22 0.19, 0.22 0.19, 0.22 0.19 M0.22 0.19 C0.22 0.19, 0.22 0.19, 0.22 0.19 M-5.22 10.12 C-2.8 4.91, -1.82 1, 11.32 -4.88 M-4.46 10.87 C1.86 6.42, 5.18 0.29, 10.65 -3.76 M-1.21 13.75 C1.45 9.48, 7.87 2.51, 22.14 -9.93 M0.24 11.14 C6.06 7.37, 9.7 4.42, 21.67 -9.5 M3.87 7.85 C14.03 6.85, 21.71 -4.96, 27.53 -12.73 M4.86 10.77 C10.84 5.03, 18.25 -0.64, 27.3 -11.51 M12.41 11.92 C18.73 5.36, 18.83 2.19, 29.4 -12.2 M12.04 9.97 C17.62 7.07, 23.56 -0.58, 31.79 -11.26 M20.46 9.08 C19.74 7.06, 32.6 -4.29, 38.55 -16.24 M15.32 10.91 C24.43 3.53, 29.19 -0.56, 39.74 -14.16 M23.9 13.98 C28.99 0.04, 39.97 -10.91, 46.75 -12.08 M23.05 8.79 C29.44 3.6, 34.9 -5.68, 44.05 -14.79 M28.49 8.64 C33.38 4.24, 37.17 -2.3, 51.45 -13.47 M28.32 8.89 C34.17 2.58, 39.12 -4.29, 48.48 -12.8 M32.08 10.37 C40.61 0.16, 48.79 -6.07, 51.26 -14.27 M32.94 9.66 C39.06 2.66, 44.68 -3.82, 50.87 -9.42 M42.67 7.59 C45.46 5.81, 51.77 -2.22, 56.76 -12.81 M41.32 7.75 C48.17 3.01, 53.14 -3.75, 55.83 -8.57 M44.59 11.74 C45.83 6.33, 47.99 5.23, 61.98 -5.56 M44.47 9.07 C51.45 0.8, 56.94 -5.77, 61.96 -9.37 M48.56 9.15 C57.93 8.04, 62.75 0.11, 66.48 -7.19 M49.89 9.9 C57.1 4.11, 62.25 -3.37, 65.83 -6.99 M57.21 5.65 C59.05 1.94, 63.34 2.09, 68.86 -10.03 M56.86 8.64 C61.16 6.28, 64.65 2.96, 71.21 -6.93 M61.81 7.77 C61.8 4.76, 68.48 3.86, 73.03 -4.3 M61.21 8.11 C65.63 5.07, 67.4 0.65, 70.18 -2.64 M67.97 6.93 C69.44 4.35, 69.54 2.42, 72.33 0.7 M66.89 9.2 C69.36 6.49, 72.35 2.73, 73.3 -0.01 M72.53 7.06 C74.1 6.66, 74.66 5.74, 77.12 4.48 M73.24 7.78 C74.17 6.63, 74.74 5.73, 76.17 4.52" stroke="#ffffff" stroke-width="0.5" fill="none"></path><path d="M-1.09 -1.48 C-4.6 5.5, -7.47 7.69, -10.18 13.47 M0.28 1.51 C-2.15 3.84, -6.23 9.74, -7.94 11.75 M-5.81 8.24 C-1.59 9.52, 11.26 9.28, 25.72 11.71 M-9.35 11.99 C-1.38 11.26, 5.84 10.86, 26.91 9.12 M28.71 13.28 C36.61 5.06, 49.95 9.03, 77.34 6.18 M26.38 10.09 C45.87 7.42, 65.73 8.87, 77.23 6.07 M81.81 6.18 C78.48 1.81, 70.24 1.02, 66.65 -8.7 M77.79 6.57 C76.42 2.74, 72.25 -0.05, 69.73 -7.68 M66.73 -8.32 C59.51 -6.07, 50.45 -13.36, 41.06 -11.24 M67.97 -5.75 C61.99 -10.48, 53.29 -13.54, 46.34 -14.56 M48.08 -16.48 C37.95 -9.41, 31.7 -11.96, 17.57 -14.84 M44.59 -14.73 C35.53 -12.63, 28.42 -12.27, 21.49 -12.04 M17.14 -14.99 C18.73 -8.94, 14.56 -7.57, -2.34 -0.05 M21.8 -9.92 C15.11 -7.71, 12.71 -6.1, 1.25 0.78 M0.56 -0.2 C0.47 0.28, 0.25 0.43, 0.24 0.59 M0.52 -0.05 C0.4 0.06, 0.43 0.28, 0.33 0.69" stroke="transparent" stroke-width="1" fill="none"></path></g></g><mask></mask></svg>